<svg width="113" height="86" viewBox="0 0 113 86" fill="none" xmlns="http://www.w3.org/2000/svg">
<circle cx="6.61813" cy="78.5232" r="6.21139" fill="#C0D9ED"/>
<circle cx="98.6599" cy="28.2673" r="5.64672" fill="#C0D9ED"/>
<circle cx="11.7003" cy="16.974" r="3.38803" fill="#C0D9ED"/>
<circle cx="50.6626" cy="46.9016" r="38.9624" fill="#C0D9ED"/>
<path d="M62.891 28.8243H44.3091V17.1853C44.3091 11.3849 49.0111 6.68286 54.8115 6.68286H62.891V28.8243Z" fill="#5B5D60"/>
<path d="M62.8911 29.4835H44.3092C43.9453 29.4835 43.6499 29.1881 43.6499 28.8242V17.1851C43.6499 11.0304 48.6568 6.02344 54.8116 6.02344H62.8911C63.2551 6.02344 63.5504 6.3188 63.5504 6.68272V28.8245C63.5504 29.1884 63.2554 29.4835 62.8911 29.4835ZM44.9685 28.1649H62.2319V7.34168H54.8116C49.384 7.34168 44.9685 11.7576 44.9685 17.1848V28.1649Z" fill="#333333"/>
<path d="M55.3494 52.1874V37.249H71.2702V52.1874H85.6449C91.2133 52.1947 95.7215 56.7672 95.7145 62.3355V82.9932H30.8333V62.2528C30.8405 56.6844 35.3866 52.1762 40.9549 52.1835L55.3494 52.1874Z" fill="#FCC24C"/>
<path d="M55.3496 48.5703L63.2357 58.3795L71.2704 48.5703V37.249H55.3496V48.5703Z" fill="#F9D0B4"/>
<path d="M85.6454 52.1873H82.1086C87.677 52.1945 92.1852 56.7624 92.1779 62.3307V82.9927H95.7147V62.335C95.7219 56.7667 91.2137 52.1942 85.6454 52.1873Z" fill="#FCC24C"/>
<path d="M40.9549 52.1826L44.4917 52.1872C38.9233 52.18 34.3769 56.6885 34.37 62.2568V82.993H30.8333V62.2526C30.8402 56.6839 35.3866 52.1754 40.9549 52.1826Z" fill="#FCC24C"/>
<path d="M43.3587 83.2978C42.9948 83.2978 42.6995 83.0025 42.6995 82.6385V73.4349C42.6995 73.071 42.9948 72.7756 43.3587 72.7756C43.7227 72.7756 44.018 73.071 44.018 73.4349V82.6385C44.018 83.0028 43.723 83.2978 43.3587 83.2978Z" fill="#333333"/>
<path d="M83.1893 83.2978C82.8254 83.2978 82.53 83.0025 82.53 82.6385V73.4349C82.53 73.071 82.8254 72.7756 83.1893 72.7756C83.5532 72.7756 83.8486 73.071 83.8486 73.4349V82.6385C83.8486 83.0028 83.5532 83.2978 83.1893 83.2978Z" fill="#333333"/>
<path d="M95.7143 83.652H30.8334C30.4694 83.652 30.1741 83.3567 30.1741 82.9928V62.2523C30.1817 56.3332 35.0109 51.5237 40.9419 51.5237H40.9557L54.6899 51.528V37.2489C54.6899 36.885 54.9853 36.5896 55.3492 36.5896H71.27C71.6339 36.5896 71.9293 36.885 71.9293 37.2489V51.528H85.6447C91.5684 51.5356 96.3808 56.384 96.3733 62.336V82.9928C96.3736 83.3567 96.0786 83.652 95.7143 83.652ZM31.4926 82.3335H95.055V62.335C95.0583 59.8129 94.0803 57.4356 92.3018 55.6393C90.5214 53.8415 88.1569 52.8496 85.644 52.8463H71.27C70.906 52.8463 70.6107 52.5509 70.6107 52.187V37.9078H56.0088V52.187C56.0088 52.362 55.9393 52.5298 55.8157 52.6534C55.692 52.777 55.5243 52.8463 55.3495 52.8463L40.955 52.8417C40.9511 52.8417 40.9465 52.8417 40.9428 52.8417C35.7368 52.8417 31.4996 57.0604 31.493 62.2526V82.3335H31.4926Z" fill="#333333"/>
<path d="M71.2706 48.5698L63.2358 58.379L72.2677 65.0124L74.6698 52.187L71.2706 48.5698Z" fill="#F4EFED"/>
<path d="M55.3496 48.5698L63.2357 58.379L54.2803 65.0124L51.8782 52.1853L55.3496 48.5698Z" fill="#F4EFED"/>
<path d="M72.2676 65.6718C72.1295 65.6718 71.9923 65.6283 71.8773 65.5439L62.8457 58.9105C62.7 58.8033 62.6048 58.6412 62.582 58.4618C62.5596 58.2825 62.6114 58.1015 62.7261 57.9614L70.7605 48.1523C70.8808 48.0052 71.0585 47.9176 71.248 47.911C71.4408 47.9083 71.6212 47.9802 71.751 48.1183L75.1503 51.7351C75.2944 51.8884 75.3567 52.101 75.3178 52.3081L72.9157 65.1335C72.8741 65.3563 72.7205 65.5419 72.5099 65.6253C72.4314 65.6566 72.3493 65.6718 72.2676 65.6718ZM64.1864 58.2594L71.8127 63.8604L73.9603 52.3948L71.3047 49.5691L64.1864 58.2594Z" fill="#333333"/>
<path d="M54.2808 65.672C54.1994 65.672 54.1176 65.6572 54.0398 65.6265C53.8285 65.5434 53.6746 65.3575 53.6327 65.134L51.2303 52.307C51.1911 52.0976 51.2553 51.8824 51.4027 51.7291L54.8742 48.1136C55.0054 47.9768 55.1903 47.9016 55.3788 47.9115C55.5684 47.9198 55.7447 48.0094 55.8637 48.1571L63.7501 57.9663C63.8625 58.106 63.9133 58.2857 63.8902 58.4634C63.8675 58.6414 63.7732 58.8022 63.6288 58.9091L54.6734 65.5425C54.5577 65.6278 54.4199 65.672 54.2808 65.672ZM52.5887 52.3976L54.7347 63.8557L62.2924 58.2577L55.306 49.5676L52.5887 52.3976Z" fill="#333333"/>
<path d="M57.5571 62.5857L63.2359 68.901L68.9529 62.5781L63.2359 58.3792L57.5571 62.5857Z" fill="#FCA265"/>
<path d="M57.5571 82.9907L63.2359 68.9011L68.9529 82.9993L63.2359 82.995L57.5571 82.9907Z" fill="#FCA265"/>
<path d="M63.2358 69.5602C63.2355 69.5602 63.2352 69.5602 63.2348 69.5602C63.0483 69.5599 62.8706 69.4805 62.7456 69.3417L57.0666 63.0261C56.9426 62.888 56.8823 62.7037 56.9011 62.5191C56.9195 62.3341 57.0155 62.166 57.1645 62.0556L62.8435 57.8494C63.0756 57.677 63.3931 57.6766 63.6264 57.8477L69.3434 62.0464C69.4938 62.1568 69.5903 62.3256 69.6091 62.5112C69.6279 62.6964 69.5673 62.8817 69.4423 63.0198L63.7253 69.343C63.5997 69.4815 63.4221 69.5602 63.2358 69.5602ZM58.5318 62.6839L63.2371 67.9166L67.9741 62.6773L63.2375 59.1986L58.5318 62.6839Z" fill="#333333"/>
<path d="M68.9526 83.6583H68.9523L57.5566 83.6498C57.3374 83.6498 57.133 83.5407 57.0103 83.3594C56.8881 83.1777 56.8637 82.9473 56.9454 82.7442L62.6245 68.6547C62.725 68.4054 62.9667 68.2423 63.2353 68.2419H63.236C63.5043 68.2419 63.7459 68.4048 63.8471 68.6537L69.5641 82.7518C69.6465 82.9552 69.6225 83.186 69.4999 83.3683C69.3769 83.5492 69.1719 83.6583 68.9526 83.6583ZM58.5333 82.3322L67.9739 82.3391L63.238 70.6599L58.5333 82.3322Z" fill="#333333"/>
<path d="M79.6772 76.6096H71.2706C70.9067 76.6096 70.6113 76.3142 70.6113 75.9503C70.6113 75.5864 70.9067 75.291 71.2706 75.291H79.6772C80.0411 75.291 80.3365 75.5864 80.3365 75.9503C80.3365 76.3142 80.0414 76.6096 79.6772 76.6096Z" fill="#333333"/>
<path d="M47.5151 23.4663H46.3887C43.4769 23.4663 41.1167 25.8265 41.1167 28.7383C41.1167 31.65 43.4769 34.0103 46.3887 34.0103H47.5151V23.4663Z" fill="#F9D0B4"/>
<path d="M80.1921 23.4663H79.0657V34.0099H80.1921C83.1035 34.0099 85.4637 31.6497 85.4637 28.738C85.464 25.8269 83.1038 23.4663 80.1921 23.4663Z" fill="#F9D0B4"/>
<path d="M63.2908 50.2657C54.5783 50.2657 47.5154 43.1111 47.5154 34.2856V23.2221C47.5154 14.3966 54.5783 7.2417 63.2908 7.2417C72.0032 7.2417 79.0661 14.3963 79.0661 23.2221V34.2853C79.0661 43.1111 72.0032 50.2657 63.2908 50.2657Z" fill="#F9D0B4"/>
<path d="M63.2906 7.2417C62.6841 7.2417 62.0868 7.27994 61.498 7.34751C69.366 8.24942 75.4808 15.0107 75.4808 23.2221V34.2853C75.4808 42.4967 69.366 49.2576 61.498 50.1599C62.0868 50.2274 62.6841 50.2657 63.2906 50.2657C72.0031 50.2657 79.066 43.1111 79.066 34.2856V23.2221C79.066 14.3963 72.0031 7.2417 63.2906 7.2417Z" fill="#F9D0B4"/>
<path d="M63.2911 7.2417C63.8976 7.2417 64.495 7.27994 65.0837 7.34751C57.2158 8.24942 51.1009 15.0107 51.1009 23.2221V34.2853C51.1009 42.4967 57.2155 49.2576 65.0834 50.1599C64.4946 50.2274 63.8973 50.2657 63.2908 50.2657C54.5783 50.2657 47.5154 43.1111 47.5154 34.2856V23.2221C47.5157 14.3963 54.5786 7.2417 63.2911 7.2417Z" fill="#F9D0B4"/>
<path d="M63.2909 50.9251C54.2287 50.9251 46.8562 43.4606 46.8562 34.2854V23.2222C46.8562 14.0473 54.2287 6.58252 63.2909 6.58252C72.3531 6.58252 79.7255 14.047 79.7255 23.2222V34.2854C79.7255 43.4606 72.3527 50.9251 63.2909 50.9251ZM63.2909 7.90142C54.9559 7.90142 48.1748 14.7745 48.1748 23.2226V34.2857C48.1748 42.7338 54.9559 49.6068 63.2909 49.6068C71.6259 49.6068 78.407 42.7338 78.407 34.2857V23.2222C78.407 14.7741 71.6259 7.90142 63.2909 7.90142Z" fill="#333333"/>
<path d="M47.5152 34.6694H46.3888C43.1184 34.6694 40.4575 32.0089 40.4575 28.7381C40.4575 25.4674 43.1181 22.8069 46.3888 22.8069H47.5152C47.8791 22.8069 48.1745 23.1022 48.1745 23.4662V34.0098C48.1745 34.3741 47.8791 34.6694 47.5152 34.6694ZM46.3888 24.1255C43.8453 24.1255 41.7761 26.1946 41.7761 28.7381C41.7761 31.2817 43.8453 33.3508 46.3888 33.3508H46.8559V24.1255H46.3888Z" fill="#333333"/>
<path d="M80.1924 34.6694H79.066C78.7021 34.6694 78.4067 34.3741 78.4067 34.0101V23.4662C78.4067 23.1022 78.7021 22.8069 79.066 22.8069H80.1924C83.4628 22.8069 86.1233 25.4674 86.1233 28.7381C86.1233 32.0089 83.4625 34.6694 80.1924 34.6694ZM79.7253 33.3508H80.1924C82.7356 33.3508 84.8048 31.2817 84.8048 28.7381C84.8048 26.1946 82.7356 24.1255 80.1924 24.1255H79.7253V33.3508Z" fill="#333333"/>
<path d="M109.19 1.2478H87.1891C85.622 1.2478 84.3516 2.51825 84.3516 4.08537V17.8519C84.3516 19.419 85.622 20.6895 87.1891 20.6895H93.0274V25.6354L96.5253 20.6895H109.19C110.757 20.6895 112.028 19.419 112.028 17.8519V4.08537C112.028 2.51825 110.757 1.2478 109.19 1.2478Z" fill="#F4EFED"/>
<path d="M109.19 1.2478H106.92C108.487 1.2478 109.757 2.51825 109.757 4.08537V17.8519C109.757 19.419 108.487 20.6895 106.92 20.6895H109.19C110.757 20.6895 112.028 19.419 112.028 17.8519V4.08537C112.028 2.51825 110.757 1.2478 109.19 1.2478Z" fill="#D6D1CF"/>
<path d="M87.1891 20.6895H89.4594C87.8923 20.6895 86.6218 19.419 86.6218 17.8519V4.08537C86.6218 2.51825 87.8923 1.2478 89.4594 1.2478H87.1891C85.622 1.2478 84.3516 2.51825 84.3516 4.08537V17.8519C84.3516 19.419 85.622 20.6895 87.1891 20.6895Z" fill="white"/>
<path d="M93.0275 26.2948C92.9609 26.2948 92.8937 26.2849 92.8278 26.2638C92.5542 26.1768 92.3682 25.9227 92.3682 25.6355V21.3489H87.1892C85.2611 21.3489 83.6924 19.7801 83.6924 17.852V4.08547C83.6924 2.15706 85.2611 0.588623 87.1892 0.588623H109.19C111.118 0.588623 112.687 2.15739 112.687 4.08547V17.852C112.687 19.7801 111.118 21.3489 109.19 21.3489H96.8666L93.5658 26.0163C93.4399 26.1943 93.2372 26.2948 93.0275 26.2948ZM87.1892 1.90719C85.988 1.90719 85.011 2.88425 85.011 4.08547V17.852C85.011 19.0532 85.988 20.0303 87.1892 20.0303H93.0275C93.3915 20.0303 93.6868 20.3257 93.6868 20.6896V23.5614L95.9871 20.3088C96.1107 20.1341 96.3111 20.0303 96.5254 20.0303H109.19C110.391 20.0303 111.369 19.0532 111.369 17.852V4.08547C111.369 2.88425 110.391 1.90719 109.19 1.90719H87.1892Z" fill="#333333"/>
<path d="M107.187 5.86984H89.1925C88.8286 5.86984 88.5332 5.57448 88.5332 5.21056C88.5332 4.84663 88.8286 4.55127 89.1925 4.55127H107.187C107.551 4.55127 107.846 4.84663 107.846 5.21056C107.846 5.57448 107.551 5.86984 107.187 5.86984Z" fill="#333333"/>
<path d="M107.187 9.80465H89.1925C88.8286 9.80465 88.5332 9.5093 88.5332 9.14537C88.5332 8.78144 88.8286 8.48608 89.1925 8.48608H107.187C107.551 8.48608 107.846 8.78144 107.846 9.14537C107.846 9.5093 107.551 9.80465 107.187 9.80465Z" fill="#333333"/>
<path d="M107.187 13.74H89.1925C88.8286 13.74 88.5332 13.4446 88.5332 13.0807C88.5332 12.7167 88.8286 12.4214 89.1925 12.4214H107.187C107.551 12.4214 107.846 12.7167 107.846 13.0807C107.846 13.4446 107.551 13.74 107.187 13.74Z" fill="#333333"/>
<path d="M107.187 17.675H89.1925C88.8286 17.675 88.5332 17.3797 88.5332 17.0157C88.5332 16.6518 88.8286 16.3564 89.1925 16.3564H107.187C107.551 16.3564 107.846 16.6518 107.846 17.0157C107.846 17.3797 107.551 17.675 107.187 17.675Z" fill="#333333"/>
<path d="M34.37 71.1478C34.0061 71.1478 33.7107 70.8525 33.7107 70.4885V66.5328C33.7107 66.1689 34.0061 65.8735 34.37 65.8735C34.7339 65.8735 35.0293 66.1689 35.0293 66.5328V70.4885C35.0293 70.8528 34.7342 71.1478 34.37 71.1478Z" fill="#333333"/>
<path d="M82.1631 20.4732H68.2156C59.5869 20.4732 52.5916 13.4782 52.5916 4.84912H66.5391C75.1678 4.84945 82.1631 11.8445 82.1631 20.4732Z" fill="#5B5D60"/>
<path d="M66.5386 4.84937H63.2666C71.8957 4.84937 78.8907 11.8444 78.8907 20.4734H82.1627C82.1627 11.8444 75.1674 4.84937 66.5386 4.84937Z" fill="#5B5D60"/>
<path d="M82.1629 21.1323H68.2154C59.2369 21.1323 51.9324 13.8277 51.9324 4.84923C51.9324 4.4853 52.2277 4.18994 52.5917 4.18994H66.5392C75.5177 4.18994 82.8222 11.4945 82.8222 20.4733C82.8222 20.8372 82.5268 21.1323 82.1629 21.1323ZM53.2651 5.50818C53.6116 13.4549 60.185 19.8137 68.2154 19.8137H81.4895C81.143 11.867 74.5696 5.50818 66.5392 5.50818H53.2651Z" fill="#333333"/>
</svg>
