<svg width="105" height="83" viewBox="0 0 105 83" fill="none" xmlns="http://www.w3.org/2000/svg">
<circle cx="6.71501" cy="75.478" r="6.21159" fill="#C0D9ED"/>
<circle cx="98.7597" cy="25.2204" r="5.6469" fill="#C0D9ED"/>
<circle cx="11.7973" cy="13.9265" r="3.38814" fill="#C0D9ED"/>
<circle cx="50.7607" cy="43.8552" r="38.9636" fill="#C0D9ED"/>
<path d="M74.5581 39.1315V19.5885C74.5581 9.40512 66.3028 1.1499 56.1194 1.1499C45.936 1.1499 37.6808 9.40512 37.6808 19.5885V39.1315H36.6522C33.1283 39.1315 30.2715 41.988 30.2715 45.5122C30.2715 49.036 33.128 51.8929 36.6522 51.8929H37.6808H74.5577H75.5436C79.0674 51.8929 81.9242 49.036 81.9242 45.5122C81.9242 41.9883 79.0674 39.1315 75.5436 39.1315H74.5581Z" fill="#FCC24C"/>
<path d="M33.2426 45.2793C33.3656 41.8216 36.3122 39.1315 39.7722 39.1315C40.2322 39.1315 40.605 38.7587 40.605 38.2987V19.5885C40.605 9.89803 48.082 1.95939 57.5805 1.21315C57.5802 1.21315 57.5802 1.21283 57.5799 1.21283C57.0975 1.17482 56.6116 1.1499 56.1197 1.1499C45.9363 1.1499 37.681 9.40512 37.681 19.5885V39.1315H36.6524C33.1286 39.1315 30.2717 41.988 30.2717 45.5122C30.2717 49.036 33.1282 51.8929 36.6524 51.8929H36.6933H37.6791H37.6814H39.6191C36.018 51.8926 33.1136 48.9095 33.2426 45.2793Z" fill="#FCC24C"/>
<path d="M81.9244 45.5119C81.9244 41.988 79.0676 39.1312 75.5437 39.1312H74.5579V19.5885C74.5579 9.40512 66.3027 1.1499 56.1193 1.1499C55.6263 1.1499 55.1395 1.17514 54.6565 1.21283C64.155 1.95939 71.632 9.89803 71.632 19.5882V38.2984C71.632 38.7584 72.0048 39.1312 72.4649 39.1312C75.9248 39.1312 78.8714 41.8216 78.9944 45.279C79.1235 48.9089 76.219 51.8922 72.6179 51.8922H74.5579H75.5437C79.0679 51.8926 81.9244 49.036 81.9244 45.5119Z" fill="#FCC24C"/>
<path d="M75.5438 52.5314H36.6524C32.7819 52.5314 29.6328 49.3826 29.6328 45.5119C29.6328 41.6411 32.7816 38.4923 36.6524 38.4923H37.0424V19.5885C37.0424 9.06904 45.6005 0.510986 56.1193 0.510986C66.6388 0.510986 75.1969 9.06904 75.1969 19.5885V38.4926H75.5438C79.4146 38.4926 82.5637 41.6414 82.5637 45.5122C82.5637 49.3829 79.4146 52.5314 75.5438 52.5314ZM36.6524 39.7704C33.4863 39.7704 30.9106 42.3461 30.9106 45.5122C30.9106 48.6782 33.486 51.254 36.6524 51.254H75.5438C78.7099 51.254 81.2859 48.6782 81.2859 45.5122C81.2859 42.3461 78.7102 39.7704 75.5438 39.7704H74.558C74.2053 39.7704 73.9191 39.4842 73.9191 39.1315V19.5885C73.9191 9.77375 65.9344 1.78878 56.1197 1.78878C46.3049 1.78878 38.3199 9.77375 38.3199 19.5885V39.1315C38.3199 39.4842 38.0337 39.7704 37.681 39.7704H36.6524Z" fill="#333333"/>
<path d="M37.9037 51.8927C33.3643 51.887 29.6581 55.5619 29.6523 60.1013V80.3736H82.5443V60.1694C82.55 55.63 78.8751 51.9023 74.3357 51.8966H62.617V39.7185H49.6384V51.8966L37.9037 51.8927Z" fill="#526FAA"/>
<path d="M49.6485 49.303L56.0982 58.1568L62.6169 49.303V39.7185H49.6379L49.6485 49.303Z" fill="#F9D0B4"/>
<path d="M37.9037 51.8926L40.7871 51.8964C36.2477 51.8907 32.5414 55.5656 32.5357 60.1053V80.3734H29.6523V60.1015C29.6581 55.5621 33.3643 51.8868 37.9037 51.8926Z" fill="#526FAA"/>
<path d="M74.3353 51.8962H71.4519C75.9913 51.902 79.6665 55.6258 79.6608 60.1652V80.3733H82.5442V60.169C82.5499 55.6296 78.8746 51.902 74.3353 51.8962Z" fill="#526FAA"/>
<path d="M82.5442 81.0125H29.6523C29.2997 81.0125 29.0134 80.7262 29.0134 80.3736V60.1016C29.0198 55.2204 33.0021 51.2541 37.8932 51.2541H37.9047L48.9992 51.2576V39.7185C48.9992 39.3658 49.2854 39.0796 49.6381 39.0796H62.617C62.9696 39.0796 63.2559 39.3658 63.2559 39.7185V51.2576H74.3357C79.2207 51.264 83.1892 55.262 83.1831 60.17V80.3736C83.1831 80.7262 82.8972 81.0125 82.5442 81.0125ZM30.2912 79.7347H81.9053V60.169C81.9108 55.9647 78.5144 52.5406 74.3347 52.5354H62.617C62.2643 52.5354 61.9781 52.2492 61.9781 51.8965V40.3574H50.277V51.8965C50.277 52.0662 50.2096 52.2288 50.0898 52.3486C49.97 52.4684 49.8074 52.5354 49.6381 52.5354C49.6381 52.5354 49.6381 52.5354 49.6377 52.5354L37.9034 52.5316C37.9037 52.5316 37.8967 52.5316 37.8932 52.5316C33.7058 52.5316 30.2967 55.9254 30.2912 60.1023V79.7347Z" fill="#333333"/>
<path d="M32.5356 65.2142C32.183 65.2142 31.8967 64.928 31.8967 64.5753V60.7419C31.8967 60.3893 32.183 60.103 32.5356 60.103C32.8883 60.103 33.1745 60.3893 33.1745 60.7419V64.5753C33.1745 64.9283 32.8886 65.2142 32.5356 65.2142Z" fill="#333333"/>
<path d="M56.0746 48.03C48.2551 48.03 41.9163 41.6087 41.9163 33.6876V23.7588C41.9163 15.8378 48.2551 9.4165 56.0746 9.4165C63.8941 9.4165 70.2329 15.8378 70.2329 23.7588V33.688C70.2329 41.6087 63.8941 48.03 56.0746 48.03Z" fill="#F9D0B4"/>
<path d="M56.0746 9.4165C55.5302 9.4165 54.9942 9.45068 54.4658 9.51138C61.5273 10.3209 67.0154 16.3891 67.0154 23.7588V33.688C67.0154 41.0574 61.5276 47.1256 54.4658 47.9354C54.9942 47.9961 55.5302 48.0303 56.0746 48.0303C63.8941 48.0303 70.2329 41.609 70.2329 33.6883V23.7588C70.2329 15.8378 63.8941 9.4165 56.0746 9.4165Z" fill="#F9D0B4"/>
<path d="M56.0746 9.4165C56.6189 9.4165 57.155 9.45068 57.6833 9.51138C50.6219 10.3209 45.1341 16.3891 45.1341 23.7588V33.688C45.1341 41.0574 50.6219 47.1256 57.6833 47.9354C57.155 47.9961 56.6189 48.0303 56.0746 48.0303C48.2551 48.0303 41.9163 41.609 41.9163 33.6883V23.7588C41.9163 15.8378 48.2551 9.4165 56.0746 9.4165Z" fill="#F9D0B4"/>
<path d="M56.0747 48.6689C47.9157 48.6689 41.2778 41.9483 41.2778 33.688V23.7585C41.2778 15.4979 47.9157 8.77759 56.0747 8.77759C64.2341 8.77759 70.872 15.4982 70.872 23.7585V33.688C70.872 41.9486 64.2341 48.6689 56.0747 48.6689ZM56.0747 10.0554C48.6201 10.0554 42.5556 16.2026 42.5556 23.7585V33.688C42.5556 41.2439 48.6201 47.3911 56.0747 47.3911C63.5294 47.3911 69.5942 41.2439 69.5942 33.688V23.7585C69.5942 16.2026 63.5294 10.0554 56.0747 10.0554Z" fill="#333333"/>
<path d="M68.1937 12.6909C68.1937 12.6909 51.1203 32.0534 40.8772 26.5224V18.7445C40.8772 18.7445 43.9062 5.32152 59.7698 7.51806C65.3828 8.49429 68.1937 12.6909 68.1937 12.6909Z" fill="#FCC24C"/>
<path d="M45.0162 28.1719C43.1512 28.1719 41.4744 27.6953 39.9903 26.7398C39.6935 26.5488 39.6082 26.1536 39.7989 25.8569C39.99 25.5601 40.3858 25.4745 40.6822 25.6655C50.2753 31.8408 67.5415 12.4649 67.7147 12.2684C67.9479 12.0039 68.3513 11.978 68.6165 12.2119C68.881 12.4451 68.9062 12.8489 68.673 13.1137C68.6283 13.1645 64.1404 18.2281 58.458 22.4164C53.2577 26.2491 48.7592 28.1719 45.0162 28.1719Z" fill="#333333"/>
<path d="M62.6171 49.3027L56.0984 58.1566L64.2507 64.144L66.4192 51.8963L62.6171 49.3027Z" fill="#F4EFED"/>
<path d="M49.6485 49.3027L56.0982 58.1566L48.0149 64.144L45.8464 51.8963L49.6485 49.3027Z" fill="#F4EFED"/>
<path d="M64.2507 64.7831C64.1166 64.7831 63.984 64.741 63.8725 64.6592L55.7201 58.6718C55.5834 58.5714 55.4921 58.4207 55.4665 58.2533C55.4409 58.0856 55.4834 57.9147 55.5837 57.7783L62.1024 48.9244C62.3059 48.6474 62.6921 48.5813 62.9768 48.7752L66.7785 51.3688C66.9862 51.5103 67.0913 51.7608 67.0478 52.008L64.8794 64.2557C64.8407 64.4733 64.6928 64.6554 64.4878 64.7375C64.4114 64.7681 64.3309 64.7831 64.2507 64.7831ZM56.9922 58.0204L63.8006 63.0211L65.718 52.1917L62.7662 50.1779L56.9922 58.0204Z" fill="#333333"/>
<path d="M48.0144 64.7831C47.9346 64.7831 47.8544 64.7681 47.778 64.7377C47.5723 64.656 47.4241 64.4736 47.3854 64.2557L45.2173 52.008C45.1736 51.7607 45.2787 51.5103 45.4866 51.3688L49.2884 48.7752C49.5743 48.5806 49.9611 48.648 50.1646 48.9269L56.6143 57.7808C56.821 58.0644 56.7603 58.4615 56.4782 58.6704L48.3946 64.6579C48.2831 64.7403 48.1492 64.7831 48.0144 64.7831ZM46.5475 52.1917L48.4639 63.0165L55.2084 58.0207L49.4967 50.1798L46.5475 52.1917Z" fill="#333333"/>
<path d="M50.9722 61.9537L56.0981 67.6543L61.2584 61.9467L56.0981 58.1567L50.9722 61.9537Z" fill="#FCA265"/>
<path d="M50.9722 80.3719L56.0981 67.6543L61.2584 80.3796L56.0981 80.3757L50.9722 80.3719Z" fill="#FCA265"/>
<path d="M56.0984 68.2931C56.098 68.2931 56.0977 68.2931 56.0974 68.2931C55.9166 68.2927 55.7444 68.2158 55.6233 68.0813L50.4974 62.3807C50.377 62.2468 50.3186 62.0683 50.3368 61.8894C50.355 61.7105 50.4476 61.5472 50.5923 61.4402L55.7182 57.6436C55.9437 57.4765 56.2517 57.4765 56.4766 57.642L61.6367 61.4319C61.7823 61.5389 61.8759 61.7025 61.8945 61.8823C61.9127 62.0619 61.8539 62.2414 61.7325 62.3753L56.5724 68.0825C56.451 68.2164 56.2788 68.2931 56.0984 68.2931ZM51.9174 62.0488L56.0996 66.7L60.3103 62.043L56.1 58.9508L51.9174 62.0488Z" fill="#333333"/>
<path d="M61.2585 81.0184C61.2582 81.0184 61.2582 81.0184 61.2579 81.0184L50.9719 81.0107C50.7598 81.0107 50.5617 80.905 50.4429 80.7293C50.3244 80.5533 50.3007 80.33 50.38 80.1332L55.5059 67.4156C55.6036 67.1741 55.8374 67.0159 56.0981 67.0156H56.0988C56.3588 67.0156 56.5933 67.1734 56.691 67.4146L61.8511 80.1399C61.9309 80.337 61.9076 80.5606 61.7888 80.7373C61.6693 80.9126 61.4709 81.0184 61.2585 81.0184ZM51.9188 79.7336L60.3101 79.7399L56.1004 69.3588L51.9188 79.7336Z" fill="#333333"/>
<path d="M70.2745 73.1152H64.0159C63.6632 73.1152 63.377 72.829 63.377 72.4763C63.377 72.1236 63.6632 71.8374 64.0159 71.8374H70.2745C70.6272 71.8374 70.9134 72.1236 70.9134 72.4763C70.9134 72.829 70.6272 73.1152 70.2745 73.1152Z" fill="#333333"/>
<path d="M37.9348 80.6929C37.5821 80.6929 37.2959 80.4067 37.2959 80.054V69.823C37.2959 69.4703 37.5821 69.1841 37.9348 69.1841C38.2875 69.1841 38.5737 69.4703 38.5737 69.823V80.054C38.5737 80.4067 38.2875 80.6929 37.9348 80.6929Z" fill="#333333"/>
<path d="M74.2619 80.6929C73.9093 80.6929 73.623 80.4067 73.623 80.054V69.823C73.623 69.4703 73.9093 69.1841 74.2619 69.1841C74.6146 69.1841 74.9008 69.4703 74.9008 69.823V80.054C74.9008 80.4067 74.6149 80.6929 74.2619 80.6929Z" fill="#333333"/>
</svg>
