<svg width="106" height="83" viewBox="0 0 106 83" fill="none" xmlns="http://www.w3.org/2000/svg">
<circle cx="6.4861" cy="75.5235" r="6.21169" fill="#C0D9ED"/>
<circle cx="98.5322" cy="25.2652" r="5.64699" fill="#C0D9ED"/>
<circle cx="11.5684" cy="13.9712" r="3.38819" fill="#C0D9ED"/>
<circle cx="50.5326" cy="43.9003" r="38.9642" fill="#C0D9ED"/>
<path d="M69.2255 19.7732C68.9385 19.7732 68.6514 19.8051 68.3644 19.837V30.0423V30.5845C68.3644 30.7121 68.3644 30.8396 68.3325 30.9672C71.3941 31.4775 74.2963 29.3726 74.7746 26.311C75.253 23.2494 73.1801 20.3472 70.1185 19.8689C69.8314 19.8051 69.5444 19.7732 69.2255 19.7732Z" fill="#F9D0B4"/>
<path d="M41.416 30.5843C41.416 30.4248 41.416 30.2335 41.416 30.0421V19.8368C38.3544 19.3265 35.4523 21.4314 34.942 24.493C34.4317 27.5546 36.5366 30.4567 39.5982 30.967C40.2041 31.0627 40.842 31.0627 41.4479 30.967C41.4479 30.8394 41.416 30.7119 41.416 30.5843Z" fill="#F9D0B4"/>
<path d="M56.9154 13.6816C51.9722 19.9005 44.7328 19.0076 42.2771 18.4973C41.8944 18.4016 41.5117 18.6567 41.416 19.0395V19.167V30.0102C41.4479 37.441 47.4754 43.4685 54.9062 43.5004C62.337 43.4685 68.3645 37.441 68.3964 30.0102V18.0508C68.3964 17.987 68.3964 17.9232 68.3964 17.8276C68.3964 17.4449 68.0775 17.1259 67.6948 17.1259C62.0819 16.9665 59.1478 14.7341 57.9997 13.6179C57.7127 13.3308 57.2662 13.3308 56.9792 13.6179C56.9473 13.6497 56.9154 13.6816 56.9154 13.6816Z" fill="#F9D0B4"/>
<path d="M40.5547 19.7729C40.8417 19.7729 41.1288 19.8048 41.4158 19.8367V19.1988C41.4158 18.8161 41.7347 18.4972 42.1493 18.4972H42.2769C44.7325 19.0075 51.972 19.8686 56.9152 13.6816C57.1703 13.3626 57.6168 13.2989 57.9357 13.554C57.9676 13.5859 57.9676 13.5859 57.9995 13.6178C59.1476 14.734 62.0816 16.9345 67.6946 17.1259C68.0773 17.1259 68.3962 17.4448 68.3962 17.8275V18.0507V19.8367C70.1502 19.5496 71.9043 20.1237 73.18 21.3356V11.2259C73.18 6.9843 69.7356 3.53999 65.494 3.53999C64.1227 3.53999 62.7514 3.92269 61.5714 4.62431C60.1043 2.29621 57.6168 0.861084 54.906 0.861084H50.9514C43.2655 0.892976 37.0466 7.11186 37.0466 14.7659V20.9848C38.0353 20.2194 39.2791 19.7729 40.5547 19.7729Z" fill="#FCC24C"/>
<path d="M58.0953 51.0587C58.191 48.5711 59.371 46.2111 61.2845 44.6166V41.9058C59.3072 42.9901 57.1066 43.5322 54.8742 43.5322C52.8013 43.5322 50.7283 43.0539 48.8467 42.0971V47.0722L50.9834 53.1635C51.111 53.5144 51.4299 53.7695 51.8126 53.7695H58.3185H58.3823C58.1591 52.8765 58.0634 51.9517 58.0953 51.0587Z" fill="#F9D0B4"/>
<path d="M82.2693 61.0725C80.7704 60.5941 79.2396 60.3709 77.6769 60.3709V77.2097C77.6769 79.2508 76.0186 80.9091 73.9775 80.9091C71.9364 80.9091 70.2781 79.2508 70.2781 77.2097V60.3709H66.9294C62.9111 60.339 59.4349 57.6601 58.3824 53.7693C58.3505 53.7693 58.3187 53.7693 58.3187 53.7693H51.8446C51.4619 53.7693 51.143 53.546 51.0154 53.1633L48.8787 47.072L42.596 50.1655L32.1355 52.8125C29.8712 53.3866 28.2448 55.3639 28.1172 57.6601L26.9053 78.8362C26.8415 79.9205 27.6707 80.8454 28.755 80.9091H28.8507H81.2488C82.3331 80.9091 83.2261 80.0162 83.2261 78.9319C83.2261 78.9 83.2261 78.8681 83.2261 78.8362L82.2693 61.0725Z" fill="#C7D7E5"/>
<path d="M48.8785 47.072L51.0153 53.1633C51.0472 53.2909 51.1429 53.4185 51.2385 53.5142L47.6348 58.1703L46.2634 48.3796L48.8785 47.072Z" fill="#EDF4FC"/>
<path d="M59.1479 80.9093L57.0111 58.9041H53.1841L51.0474 80.9093H59.1479Z" fill="#FCA265"/>
<path d="M58.4144 53.7695C58.3825 53.7695 58.3506 53.7695 58.3506 53.7695H51.8447C51.6214 53.7695 51.3982 53.6739 51.2387 53.5144L50.7922 54.0885L53.1841 58.8722H57.0111L58.8927 55.0771C58.7014 54.6944 58.5419 54.2479 58.4144 53.7695Z" fill="#FCA265"/>
<path d="M82.2694 61.0727C80.7705 60.5944 79.2397 60.3711 77.677 60.3711V77.21C77.677 79.251 76.0186 80.9094 73.9776 80.9094C71.9365 80.9094 70.2781 79.251 70.2781 77.21V60.3711H66.9295C65.3349 60.3711 63.7403 59.9246 62.369 59.0955L59.3074 80.9094H81.2489C82.3332 80.9094 83.2262 80.0164 83.2262 78.9321C83.2262 78.9002 83.2262 78.8683 83.2262 78.8364L82.2694 61.0727Z" fill="#526FAA"/>
<path d="M28.0853 57.692C28.2128 55.3639 29.8393 53.3866 32.1036 52.8445L42.5641 50.1975L46.2317 48.3796L50.7922 80.9092H28.8826C27.7982 80.9092 26.9053 80.0162 26.9053 78.9319C26.9053 78.9 26.9053 78.8681 26.9053 78.8362L28.0853 57.692Z" fill="#526FAA"/>
<path d="M66.9612 60.3711C65.3666 60.3711 63.7721 59.9246 62.4007 59.0955L59.3391 80.9094H62.5283L68.205 67.2278C68.3007 67.0365 68.2688 66.7814 68.1093 66.6219L65.6537 63.6879C65.4304 63.4327 65.4623 63.05 65.7175 62.8268C65.7493 62.7949 65.8131 62.763 65.845 62.7311L68.8747 61.3279C69.1299 61.2003 69.2574 60.9452 69.2255 60.69L69.1618 60.3711H66.9612Z" fill="white"/>
<path d="M47.6347 80.9092L41.958 67.2277C41.8623 67.0363 41.8942 66.7812 42.0536 66.6217L44.5093 63.6877C44.7325 63.4325 44.7007 63.0498 44.4455 62.8266C44.4136 62.7947 44.3498 62.7628 44.318 62.7309L41.2882 61.3277C41.0331 61.2001 40.9055 60.945 40.9374 60.6898L42.6277 50.1656L46.2634 48.3796L50.8239 80.9092H47.6347Z" fill="white"/>
<path d="M97.7049 74.1801C96.7162 74.1801 95.9189 73.3828 95.9189 72.3941V30.4246C95.9189 29.436 96.7162 28.6387 97.7049 28.6387C98.6935 28.6387 99.4908 29.436 99.4908 30.4246V72.426C99.4908 73.3828 98.6935 74.1801 97.7049 74.1801Z" fill="#5290DB"/>
<path d="M87.627 38.6528C84.8843 41.1084 81.3443 42.4479 77.6768 42.4479V60.3391C81.3443 60.3072 84.9162 61.6786 87.627 64.1342L95.9188 71.3737V31.4133L87.627 38.6528Z" fill="#EDF4FC"/>
<path d="M100.575 47.3591H99.4907V55.4596H100.575C102.807 55.4596 104.625 53.6418 104.625 51.4094C104.625 49.177 102.839 47.3591 100.575 47.3591Z" fill="#3A70BF"/>
<path d="M77.6452 60.3711H70.3101V77.2099C70.3101 79.251 71.9684 80.9094 74.0095 80.9094C76.0506 80.9094 77.7089 79.251 77.7089 77.2099V60.3711H77.6452Z" fill="#5290DB"/>
<path d="M77.6447 42.4478H74.1047V60.339H77.6447H77.6766V42.4478H77.6447Z" fill="#3A70BF"/>
<path d="M74.1052 42.4478H67.2485C62.401 42.4478 58.3188 46.211 58.1275 51.0266C57.9361 55.9699 61.7631 60.1158 66.7064 60.339H66.9934H74.1052V42.4478Z" fill="#5290DB"/>
<path d="M100.575 46.5618H100.288V30.4246C100.288 28.9895 99.14 27.8414 97.7049 27.8414C96.2698 27.8414 95.1217 28.9895 95.1217 30.4246V31.0624L87.085 38.0786C84.5017 40.4067 81.1212 41.6824 77.645 41.6824H77.6131H67.2164C65.3986 41.6824 63.6445 42.1608 62.0818 43.0856V42.384C65.9088 40.1516 68.4921 36.2289 69.0342 31.8278C72.5742 31.9235 75.5401 29.1489 75.6358 25.609C75.6996 23.9187 75.0618 22.2603 73.9137 21.0484V11.2258C73.9137 6.5377 70.1504 2.74259 65.4624 2.74259C64.1867 2.74259 62.911 3.02961 61.731 3.60366C60.1364 1.40314 57.5851 0.0955741 54.8743 0.0955741H50.9516C42.8192 0.0636823 36.2495 6.66527 36.2495 14.7658V20.6338C33.6025 23.0257 33.4112 27.076 35.7712 29.723C36.983 31.0624 38.7371 31.8278 40.5549 31.8278H40.7463C41.3203 36.3884 44.063 40.4067 48.1133 42.6073V46.5937L42.3409 49.4321L31.9123 52.0472C29.2971 52.685 27.4474 54.9493 27.288 57.6283L26.108 78.7725C26.0123 80.3033 27.1923 81.6108 28.7231 81.7065H28.8826H50.9197H59.2435C59.7219 81.7703 81.2488 81.7065 81.2807 81.7065C82.8115 81.7065 84.0552 80.4627 84.0552 78.9319C84.0552 78.8681 84.0552 78.8363 84.0552 78.7725L83.1304 62.2207C84.5974 62.8266 85.9369 63.6877 87.1168 64.7401L95.1536 71.7563V72.3941C95.1536 73.8293 96.3017 74.9774 97.7368 74.9774C99.1719 74.9774 100.32 73.8293 100.32 72.3941V56.2569H100.607C103.286 56.2569 105.455 54.0564 105.455 51.3775C105.423 48.7305 103.254 46.5618 100.575 46.5618ZM76.8796 77.1779C76.8796 78.7725 75.572 80.08 73.9775 80.08C72.3829 80.08 71.0753 78.7725 71.0753 77.1779V61.1363H76.8477V77.1779H76.8796ZM76.8796 59.5737H74.9023V43.277H76.8796V59.5737ZM73.3077 43.2451V59.5418H66.9932H66.9613C62.4645 59.478 58.8608 55.7785 58.9246 51.2818C58.9246 51.218 58.9246 51.1223 58.9246 51.0586C59.084 46.7532 62.8472 43.2451 67.2483 43.2451H73.3077ZM57.8083 59.0634L58.9246 56.831C59.6262 57.8834 60.5191 58.7764 61.5397 59.478L59.371 75.0411L57.8083 59.0634ZM50.7922 75.0411L48.4641 58.3937L50.6327 55.5872L52.3549 59.0315L50.7922 75.0411ZM48.4322 48.1883L50.25 53.4504V53.4823L48.1452 56.1931L47.1246 48.8261L48.4322 48.1883ZM51.9084 54.5666H57.8083C57.8721 54.7261 57.9359 54.9175 57.9997 55.0769L56.5008 58.1066H53.6624L51.9084 54.5666ZM69.1618 30.2333C69.1618 30.0738 69.1618 28.6068 69.1618 20.5701C71.8407 20.5382 74.0093 22.6749 74.0731 25.3219C74.105 28.0008 71.9683 30.1695 69.3213 30.2333C69.2575 30.2333 69.2256 30.2333 69.1618 30.2333ZM37.8441 19.5814V14.7658C37.8441 7.52635 43.7122 1.65827 50.9516 1.65827H54.9062C57.33 1.65827 59.5943 2.96583 60.8381 5.03879C61.0613 5.42149 61.5397 5.54906 61.9224 5.32582C65.1753 3.38042 69.4169 4.43285 71.3623 7.68581C72.0002 8.77012 72.351 9.98201 72.351 11.2577V19.8047C71.3942 19.2625 70.278 19.0074 69.1618 19.0074V18.0825C69.1618 16.9663 68.4921 16.3922 67.6948 16.3604C62.2732 16.2009 59.4986 14.0323 58.5419 13.1074C57.9359 12.5333 56.9792 12.5333 56.3732 13.1393C56.3413 13.1712 56.3094 13.2031 56.2775 13.2669C51.717 19.0074 45.0835 18.3376 42.4365 17.7955C41.6073 17.636 40.8101 18.1463 40.6506 18.9755V19.0712C39.662 18.9755 38.7052 19.1668 37.8441 19.5814ZM40.6187 30.2333C37.9398 30.2652 35.7712 28.1284 35.7074 25.4814C35.6436 22.8344 37.8122 20.6339 40.4592 20.5701H40.5868C40.6187 28.6068 40.6187 30.0738 40.6187 30.2333ZM42.2133 30.0738V19.3263C47.6987 20.4106 53.6624 19.0074 57.4894 14.2555C58.8608 15.5631 61.9543 17.7317 67.5672 17.9231V30.0419V30.0738C67.5672 37.09 61.8586 42.7348 54.8743 42.7348C47.89 42.7029 42.2133 37.0581 42.2133 30.0738ZM54.9062 44.3294C56.8197 44.3294 58.7332 43.9467 60.5191 43.1813V44.2337C58.5737 45.9559 57.4256 48.4115 57.33 51.0267V51.0586C57.2981 51.6964 57.33 52.3661 57.4575 53.004H51.8765C51.8446 53.004 51.8446 53.004 51.8127 53.004C51.7808 53.004 51.7808 52.9721 51.7808 52.9721L49.676 46.9445V43.3408C51.3343 43.9786 53.1203 44.3294 54.9062 44.3294ZM27.7026 78.8681L28.8826 57.7239C28.9782 55.7466 30.3815 54.0564 32.295 53.578L41.6392 51.218L40.1403 60.5304C40.0447 61.1363 40.3636 61.7742 40.9376 62.0293L43.7122 63.305L41.416 66.0477C41.0971 66.4623 41.0014 67.0044 41.1928 67.4828L46.423 80.1119H39.7257V70.6401C39.7257 70.1936 39.3749 69.8428 38.9284 69.8428C38.482 69.8428 38.1312 70.1936 38.1312 70.6401V80.1119H28.8826C28.2447 80.1119 27.7026 79.6017 27.7026 78.9319C27.7026 78.9 27.7026 78.9 27.7026 78.8681ZM48.1452 80.1119L42.7236 67.0044L45.1154 64.1661C45.6257 63.5601 45.53 62.699 44.9241 62.1888C44.8284 62.125 44.7327 62.0293 44.6052 61.9974L41.7349 60.658L43.3614 50.7078L45.6576 49.5915L49.8992 80.1119H48.1452ZM51.9084 80.1119L53.8857 59.7012H56.2775L58.2548 80.1119H51.9084ZM60.264 80.1119L63.0386 60.3072C64.4099 60.9131 65.877 61.2001 67.3759 61.1363L65.558 61.9655C64.8564 62.2845 64.5375 63.1136 64.8883 63.8153C64.9521 63.9109 65.0159 64.0385 65.0797 64.1342L67.4715 66.9725L62.0499 80.08H60.264V80.1119ZM63.7402 80.1119L68.9705 67.5147C69.1618 67.0363 69.098 66.4942 68.7472 66.0796L66.451 63.3369L69.2256 62.0612C69.3213 62.0293 69.385 61.9655 69.4807 61.9017V77.1779C69.4807 78.2622 69.8634 79.2827 70.565 80.1119H63.7402ZM81.2807 80.1119H77.3899C78.0915 79.2827 78.4742 78.2622 78.4742 77.1779V61.1682C79.4947 61.232 80.5153 61.3915 81.5039 61.6466L82.4607 78.8363C82.4925 79.4741 82.0142 80.0481 81.3444 80.08C81.3126 80.1119 81.3126 80.1119 81.2807 80.1119ZM88.1693 63.5601C85.4904 61.1682 82.078 59.765 78.4742 59.6055V43.2451C82.078 43.0856 85.4904 41.6824 88.1693 39.2586L95.1536 33.1673V69.6195L88.1693 63.5601ZM98.6935 72.3941C98.6935 72.9363 98.2471 73.3828 97.7049 73.3828C97.1627 73.3828 96.7163 72.9363 96.7163 72.3941V30.4246C96.7163 29.8824 97.1627 29.436 97.7049 29.436C98.2471 29.436 98.6935 29.8824 98.6935 30.4246V72.3941ZM100.575 54.6623H100.288V48.1564H100.575C102.361 48.1564 103.828 49.6234 103.828 51.4094C103.828 53.1953 102.393 54.6623 100.575 54.6623Z" fill="#333333"/>
<path d="M67.5991 47.1996H70.1504C70.5969 47.1996 70.9477 46.8488 70.9477 46.4023C70.9477 45.9558 70.5969 45.605 70.1504 45.605H67.5991C67.1526 45.605 66.8018 45.9558 66.8018 46.4023C66.8018 46.8488 67.1526 47.1996 67.5991 47.1996Z" fill="#333333"/>
<path d="M67.5991 50.5484H70.1504C70.5969 50.5484 70.9477 50.1976 70.9477 49.7512C70.9477 49.3047 70.5969 48.9539 70.1504 48.9539H67.5991C67.1526 48.9539 66.8018 49.3047 66.8018 49.7512C66.8018 50.1976 67.1526 50.5484 67.5991 50.5484Z" fill="#333333"/>
<path d="M67.5991 53.8968H70.1504C70.5969 53.8968 70.9477 53.546 70.9477 53.0995C70.9477 52.6531 70.5969 52.3022 70.1504 52.3022H67.5991C67.1526 52.3022 66.8018 52.6531 66.8018 53.0995C66.8018 53.546 67.1526 53.8968 67.5991 53.8968Z" fill="#333333"/>
<path d="M67.5991 57.2457H70.1504C70.5969 57.2457 70.9477 56.8949 70.9477 56.4484C70.9477 56.0019 70.5969 55.6511 70.1504 55.6511H67.5991C67.1526 55.6511 66.8018 56.0019 66.8018 56.4484C66.8018 56.8949 67.1526 57.2457 67.5991 57.2457Z" fill="#333333"/>
</svg>
