<svg width="106" height="83" viewBox="0 0 106 83" fill="none" xmlns="http://www.w3.org/2000/svg">
<circle cx="6.48573" cy="75.4784" r="6.21131" fill="#C0D9ED"/>
<circle cx="98.5263" cy="25.2233" r="5.64665" fill="#C0D9ED"/>
<circle cx="11.5677" cy="13.9297" r="3.38799" fill="#C0D9ED"/>
<circle cx="50.5295" cy="43.8571" r="38.9619" fill="#C0D9ED"/>
<path d="M57.4065 79.0985V76.9408C57.4065 76.1475 58.0728 75.4811 58.8661 75.5128H58.8979H65.2759V71.1339H59.469C58.3267 71.1339 57.4065 70.2137 57.4065 69.0713V44.0352C57.4065 42.9563 58.1998 42.0678 59.2786 41.9726V41.7188C55.4391 43.813 50.8063 43.8765 46.9033 41.9091V46.891L41.7311 49.4612C41.0013 49.8103 40.2397 50.0959 39.4464 50.2863L30.2125 52.6027C27.9596 53.1738 26.3413 55.1412 26.2144 57.4576L25.0086 78.5273C24.9451 79.6062 25.7701 80.5264 26.849 80.5899H26.9442H58.8661C58.0728 80.5899 57.4065 79.9235 57.4065 79.0985Z" fill="#EDF4FC"/>
<path d="M66.2914 19.2845V29.9463C66.2597 37.3397 60.2624 43.337 52.869 43.3687C45.4755 43.337 39.4783 37.3397 39.4465 29.9463V25.726C39.4465 24.9644 40.0812 24.3298 40.8427 24.3298H40.9062C44.3332 24.4885 52.9959 23.949 58.1364 15.5719C58.5489 14.9055 59.4057 14.7151 60.072 15.0959C60.199 15.1911 60.3259 15.2863 60.4211 15.3815C61.5952 16.7777 63.2769 17.6662 65.0856 17.8566C65.7837 17.9835 66.2914 18.5547 66.2914 19.2845Z" fill="#F9D0B4"/>
<path d="M40.9066 24.3298C44.3336 24.4884 52.9963 23.949 58.1368 15.5718C58.5493 14.9055 59.4061 14.7151 60.0724 15.0959C60.1994 15.1911 60.3263 15.2863 60.4215 15.3815C61.5955 16.7776 63.2773 17.6661 65.086 17.8565C65.7841 17.9517 66.2918 18.5229 66.2918 19.2527V29.9145C66.2918 34.8329 63.5629 39.3705 59.2474 41.7186V41.909H59.4695H78.0959C74.3834 37.8474 72.2891 32.5165 72.2573 26.9952V12.2083C72.2573 8.0832 69.3063 4.43407 65.2129 3.86291C63.3725 3.60905 61.5003 3.98983 59.882 4.94178C58.4224 2.46672 55.7569 0.943604 52.8694 0.943604H48.6808C40.4941 0.975335 33.8939 7.5755 33.8622 15.7305V26.424C33.8622 32.2626 32.0217 38.1964 27.8014 42.2581C27.262 42.7658 27.2303 43.6225 27.738 44.1937L27.8966 44.3524C29.5149 45.5582 32.7198 47.4621 36.8449 47.3034C38.7806 47.2082 40.7162 47.5572 42.4614 48.3823L42.5883 48.4457C42.7787 48.5409 43.0009 48.6361 43.1912 48.7313L46.8721 46.9226V41.9408C42.3345 39.6561 39.4469 35.0233 39.4469 29.9145V25.7259C39.4469 24.9644 40.0816 24.3298 40.8431 24.3298H40.9066Z" fill="#5B5D60"/>
<path d="M57.4066 43.9717C57.4066 42.8928 58.1999 42.0043 59.2787 41.9091V41.7188C55.4392 43.813 50.8064 43.8765 46.9034 41.9091V46.891L45.063 47.8112L45.7294 53.3325C49.2516 55.4585 53.5036 55.9662 57.4383 54.7921L57.4066 43.9717Z" fill="#F9D0B4"/>
<path d="M45.0312 47.8113L41.6993 49.4613C40.9695 49.8104 40.208 50.096 39.4147 50.2863L30.1808 52.6027C27.9279 53.1739 26.3095 55.1413 26.1826 57.4577L25.0086 78.5274C24.9451 79.6063 25.7701 80.5265 26.849 80.59H26.9442H48.9024L45.0312 47.8113Z" fill="#FCC24C"/>
<path d="M58.898 75.4812H65.276V71.1022H59.4691C59.0883 71.1022 58.7076 71.007 58.3903 70.7849L57.7874 75.9572C58.0412 75.6716 58.4537 75.4812 58.898 75.4812Z" fill="#FCC24C"/>
<path d="M45.0313 47.8113L41.6995 49.4613C41.5725 49.5248 41.4456 49.5882 41.3187 49.62L38.685 59.2981C38.6532 59.5202 38.7484 59.7423 38.9388 59.8375L41.6995 61.6145C41.9216 61.7732 42.0168 62.0587 41.8899 62.3126L40.3033 65.4858C40.2398 65.6127 40.2398 65.7396 40.2715 65.8665L45.6024 80.59H48.9343L45.0313 47.8113Z" fill="#FCA265"/>
<path d="M58.898 75.4812H62.3884L63.975 71.1022H59.4691C59.0883 71.1022 58.7076 71.007 58.3903 70.7849L57.7874 75.9572C58.0412 75.6716 58.4537 75.4812 58.898 75.4812Z" fill="#FCA265"/>
<path d="M104.655 79.0988V76.941C104.655 76.1477 103.988 75.4814 103.195 75.5131H103.163H58.8979C58.1046 75.4814 57.4065 76.116 57.4065 76.9093V76.941V79.0988C57.4065 79.9238 58.0729 80.5902 58.8979 80.5902H103.163C103.988 80.5902 104.655 79.9238 104.655 79.0988Z" fill="#3A70BF"/>
<path d="M95.6115 63.0427H66.4185C65.7838 63.0427 65.2761 63.5504 65.2761 64.1851V75.4815H96.7538V64.1851C96.7538 63.5504 96.2461 63.0427 95.6115 63.0427Z" fill="#5290DB"/>
<path d="M102.592 41.9094H59.469C58.3267 41.9094 57.4065 42.8296 57.4065 43.972V69.0399C57.4065 70.1822 58.3267 71.1024 59.469 71.1024H65.2759V64.1532C65.2759 63.5186 65.7836 63.0109 66.4183 63.0109H95.6113C96.2459 63.0109 96.7536 63.5186 96.7536 64.1532V71.1024H102.592C103.735 71.1024 104.655 70.1822 104.655 69.0399V43.972C104.655 42.8296 103.735 41.9094 102.592 41.9094Z" fill="#3A70BF"/>
<path d="M102.592 41.1161H78.4763C75.0176 37.2131 73.082 32.1995 73.082 26.9955V12.2086C73.082 7.60755 69.7501 3.70457 65.3395 3.06994C63.5625 2.81609 61.7538 3.10167 60.1672 3.89496C58.4537 1.54682 55.7565 0.150635 52.869 0.150635H48.6804C40.0494 0.150635 33.1002 7.13158 33.0685 15.7308V26.4244C33.0685 32.6437 31.0059 38.0698 27.2299 41.6872C26.3731 42.5123 26.3414 43.8767 27.1664 44.7335C27.2299 44.8287 27.3251 44.8921 27.4203 44.9556C29.0703 46.1931 32.4656 48.2557 36.8763 48.0653C38.3994 47.9701 39.8908 48.2239 41.3187 48.7316C40.6523 49.049 39.9542 49.3028 39.2244 49.4932L29.9905 51.8096C27.3885 52.4442 25.5481 54.7289 25.3894 57.3944L24.2154 78.4641C24.1202 79.9872 25.2942 81.2882 26.8174 81.3834H26.976H103.163C104.433 81.3834 105.448 80.368 105.448 79.0987V76.941C105.448 75.7035 104.433 74.6881 103.195 74.7198C103.163 74.7198 103.163 74.7198 103.163 74.7198H97.5787V71.9274H102.592C104.179 71.9274 105.448 70.6264 105.448 69.0716V44.0354C105.448 42.3853 104.147 41.1161 102.592 41.1161ZM59.4691 71.8957H62.8327L61.8173 74.6881H58.898C58.8345 74.6881 58.771 74.6881 58.7076 74.6881L59.0566 71.8639C59.1835 71.8957 59.3422 71.8957 59.4691 71.8957ZM63.499 74.6881L64.4827 71.9909V74.6881H63.499ZM45.888 48.2874L47.2525 47.621C47.5381 47.4941 47.6967 47.2085 47.6967 46.9229V43.1786C49.3468 43.845 51.1237 44.1623 52.9007 44.1623C54.17 44.1623 55.4392 44.0036 56.645 43.6546C56.645 43.7181 56.6133 43.8767 56.6133 44.0036V54.2212C53.1863 55.078 49.5371 54.602 46.4275 52.8885L45.888 48.2874ZM40.2398 29.9148V25.7263C40.2398 25.3772 40.5254 25.1234 40.8427 25.1234H40.8744C48.0775 25.4407 54.868 22.4262 58.8028 15.9847C58.9614 15.6991 59.3422 15.6039 59.6278 15.7626C59.6912 15.7943 59.7547 15.8578 59.7864 15.8895C61.1192 17.4126 62.9596 18.3963 64.9587 18.6184C65.2443 18.6501 65.4981 18.904 65.4981 19.2213V29.8831C65.4981 36.864 59.8499 42.5123 52.869 42.5123C45.888 42.5123 40.2398 36.8958 40.2398 29.9148ZM36.8128 46.4787C32.8781 46.6374 29.8319 44.7969 28.3722 43.6863C28.1183 43.4959 28.0866 43.1469 28.277 42.893L28.3405 42.8296C32.4021 38.9266 34.655 33.088 34.655 26.4244V15.7308C34.6868 8.02006 40.9379 1.73721 48.6804 1.73721H52.869C55.4709 1.76894 57.8825 3.1334 59.2153 5.35461C59.4374 5.73539 59.9134 5.86231 60.2941 5.64019C61.7221 4.78344 63.4356 4.43439 65.0856 4.65652C68.703 5.16422 71.4319 8.40084 71.4319 12.2086V26.9955C71.4636 32.1043 73.1772 37.0862 76.3503 41.1161H61.5951C65.0221 38.4189 67.053 34.2938 67.053 29.9466V19.2848C67.053 18.1742 66.2279 17.2539 65.1491 17.127C63.5308 16.9684 62.0394 16.1751 60.9605 14.9375C60.1672 14.0173 58.8028 13.8904 57.8825 14.6837C57.6922 14.8423 57.5335 15.001 57.4383 15.2231C53.8209 21.0935 47.5698 23.8224 40.9379 23.5368C39.7321 23.4733 38.685 24.4253 38.6532 25.6311V25.7263V29.9148C38.6532 35.1188 41.5091 39.9103 46.0784 42.4171V46.4152L43.1908 47.8432C41.0966 46.8912 39.6052 46.3518 36.8128 46.4787ZM25.8019 78.5593L26.976 57.5213C27.0712 55.5539 28.4674 53.8722 30.3713 53.3962L39.6052 51.0798C39.7956 51.048 39.9542 50.9846 40.1446 50.9211L37.9234 59.1079V59.1713C37.8282 59.7108 38.0503 60.2502 38.5263 60.5358L41.0966 62.1858L39.6052 65.1686C39.4465 65.4542 39.4148 65.8032 39.51 66.1205C39.51 66.1523 39.51 66.1523 39.5417 66.184L44.4918 79.8286H37.7647V70.3726C37.7647 69.9283 37.4157 69.5793 36.9714 69.5793C36.5272 69.5793 36.1782 69.9283 36.1782 70.3726V79.7968H26.976C26.3414 79.7968 25.8019 79.2574 25.8019 78.6228C25.8019 78.591 25.8019 78.591 25.8019 78.5593ZM46.1736 79.7968L41.0648 65.7398L42.6197 62.6618C42.937 62.0589 42.7149 61.2973 42.1437 60.9483L39.5417 59.2983L42.0168 50.223C42.0485 50.223 42.0485 50.1913 42.0802 50.1913L44.3966 49.049L48.0458 79.8286H46.1736V79.7968ZM49.6323 79.7968L46.6496 54.7289C49.7593 56.1886 53.2497 56.5693 56.6133 55.8078V69.0081C56.6133 69.8014 56.9623 70.5947 57.5335 71.1341L56.9941 75.64C56.7402 76.0208 56.5815 76.465 56.5815 76.9093V79.067C56.5815 79.3209 56.6133 79.543 56.7085 79.7651H49.6323V79.7968ZM103.862 76.9093V79.067C103.862 79.4478 103.544 79.7651 103.163 79.7651H58.898C58.5172 79.7651 58.1999 79.4478 58.1999 79.067V76.9093C58.1999 76.5285 58.5172 76.2429 58.898 76.2746H58.9297H103.195C103.576 76.2429 103.893 76.5285 103.893 76.8775C103.862 76.9093 103.862 76.9093 103.862 76.9093ZM66.0693 74.6881V64.1849C66.0693 63.9945 66.2279 63.8359 66.4183 63.8359H95.6114C95.8017 63.8359 95.9604 63.9945 95.9604 64.1849V74.6881H66.0693ZM103.862 69.0398C103.862 69.7379 103.29 70.3091 102.592 70.3091H97.5787V64.1532C97.5787 63.0743 96.722 62.2176 95.6431 62.2176H66.4501C65.3712 62.2176 64.5144 63.0743 64.5144 64.1532V70.3091H59.5009C58.8028 70.3091 58.2316 69.7379 58.2316 69.0398V44.0036C58.2316 43.3055 58.8028 42.7344 59.5009 42.7344H102.592C103.29 42.7344 103.862 43.3055 103.862 44.0036V69.0398Z" fill="#333333"/>
<path d="M71.4005 49.5562C70.9562 49.5562 70.6072 49.9052 70.6072 50.3494V53.6495C70.6072 54.0938 70.9562 54.4428 71.4005 54.4428C71.8447 54.4428 72.1938 54.0938 72.1938 53.6495V50.3494C72.1938 49.9369 71.8447 49.5562 71.4005 49.5562Z" fill="#333333"/>
<path d="M67.5606 49.5562C67.1164 49.5562 66.7673 49.9052 66.7673 50.3494V53.6495C66.7673 54.0938 67.1164 54.4428 67.5606 54.4428C68.0049 54.4428 68.3539 54.0938 68.3539 53.6495V50.3494C68.3539 49.9369 68.0049 49.5562 67.5606 49.5562Z" fill="#333333"/>
<path d="M75.2398 49.5562C74.7956 49.5562 74.4465 49.9052 74.4465 50.3494V53.6495C74.4465 54.0938 74.7956 54.4428 75.2398 54.4428C75.6841 54.4428 76.0331 54.0938 76.0331 53.6495V50.3494C76.0331 49.9369 75.6841 49.5562 75.2398 49.5562Z" fill="#333333"/>
<path d="M79.1107 49.5562C78.6664 49.5562 78.3174 49.9052 78.3174 50.3494V53.6495C78.3174 54.0938 78.6664 54.4428 79.1107 54.4428C79.5549 54.4428 79.904 54.0938 79.904 53.6495V50.3494C79.904 49.9369 79.5232 49.5562 79.1107 49.5562Z" fill="#333333"/>
<path d="M82.9505 49.5562C82.5063 49.5562 82.1572 49.9052 82.1572 50.3494V53.6495C82.1572 54.0938 82.5063 54.4428 82.9505 54.4428C83.3948 54.4428 83.7438 54.0938 83.7438 53.6495V50.3494C83.7438 49.9369 83.3948 49.5562 82.9505 49.5562Z" fill="#333333"/>
<path d="M86.7901 49.5562C86.3459 49.5562 85.9968 49.9052 85.9968 50.3494V53.6495C85.9968 54.0938 86.3459 54.4428 86.7901 54.4428C87.2344 54.4428 87.5834 54.0938 87.5834 53.6495V50.3494C87.5834 49.9369 87.2344 49.5562 86.7901 49.5562Z" fill="#333333"/>
<path d="M90.6295 49.5562C90.1852 49.5562 89.8362 49.9052 89.8362 50.3494V53.6495C89.8362 54.0938 90.1852 54.4428 90.6295 54.4428C91.0737 54.4428 91.4228 54.0938 91.4228 53.6495V50.3494C91.4228 49.9369 91.0737 49.5562 90.6295 49.5562Z" fill="#333333"/>
<path d="M94.5011 49.5562C94.0568 49.5562 93.7078 49.9052 93.7078 50.3494V53.6495C93.7078 54.0938 94.0568 54.4428 94.5011 54.4428C94.9453 54.4428 95.2943 54.0938 95.2943 53.6495V50.3494C95.2943 49.9369 94.9453 49.5562 94.5011 49.5562Z" fill="#333333"/>
</svg>
