<svg width="105" height="85" viewBox="0 0 105 85" fill="none" xmlns="http://www.w3.org/2000/svg">
<circle cx="6.64952" cy="77.5162" r="6.21739" fill="#C0D9ED"/>
<circle cx="11.7365" cy="15.9077" r="3.3913" fill="#C0D9ED"/>
<circle cx="98.78" cy="27.2122" r="5.65217" fill="#C0D9ED"/>
<circle cx="50.7364" cy="45.8643" r="39" fill="#C0D9ED"/>
<path d="M71.5612 1.50757C74.543 1.50757 77.1228 3.77357 77.3036 6.74978C77.3111 6.8741 77.315 6.99972 77.315 7.12599V7.72844C80.8706 7.72844 83.6719 10.7585 83.3937 14.3031L82.3553 27.5304H62.7689H62.7598H43.1734L42.135 14.3031C41.8569 10.7585 44.6581 7.72844 48.2137 7.72844V7.12599C48.2137 6.99972 48.2176 6.87443 48.2251 6.74978C48.4059 3.77357 50.9858 1.50757 53.9675 1.50757H71.5612Z" fill="#FCC24C"/>
<path d="M78.1685 7.79468C79.7067 9.09014 80.6461 11.1497 80.4799 13.4118L79.4415 27.5301H82.3554L83.3938 14.3028C83.6496 11.0481 81.306 8.23418 78.1685 7.79468Z" fill="#DEA42E"/>
<path d="M47.3604 7.79468C45.8221 9.09014 44.8828 11.1497 45.049 13.4118L46.0873 27.5301H43.1734L42.1351 14.3028C41.8793 11.0481 44.2229 8.23418 47.3604 7.79468Z" fill="#FCE06A"/>
<path d="M82.355 28.1795H43.1737C42.8349 28.1795 42.5531 27.9189 42.5265 27.5813L41.4878 14.354C41.3411 12.4847 41.987 10.6228 43.2601 9.24586C44.3854 8.02863 45.927 7.27037 47.5649 7.11067C47.5652 6.97629 47.5694 6.84288 47.5775 6.71045C47.7765 3.42911 50.5839 0.858643 53.9675 0.858643H71.5609C74.9448 0.858643 77.7519 3.42911 77.9515 6.71045C77.9596 6.84288 77.9639 6.97629 77.9642 7.11067C79.6021 7.27037 81.1436 8.02863 82.269 9.24586C83.542 10.6228 84.188 12.4847 84.0413 14.354L83.0026 27.5813C82.9759 27.9189 82.6939 28.1795 82.355 28.1795ZM43.7736 26.8811H81.7551L82.7468 14.2524C82.8672 12.7207 82.3589 11.2558 81.3156 10.1275C80.2727 8.99917 78.8516 8.37789 77.3153 8.37789C76.957 8.37789 76.6661 8.08706 76.6661 7.7287V7.12658C76.6661 7.01362 76.6626 6.90131 76.6561 6.78997C76.4977 4.19191 74.2599 2.15702 71.5612 2.15702H53.9678C51.2691 2.15702 49.0314 4.19191 48.8733 6.78932C48.8665 6.90066 48.8632 7.01297 48.8632 7.12593V7.72805C48.8632 8.08641 48.5724 8.37724 48.2141 8.37724C46.6777 8.37724 45.2567 8.99884 44.2137 10.1268C43.1705 11.2551 42.6622 12.72 42.7826 14.2518L43.7736 26.8811Z" fill="#333333"/>
<path d="M55.1266 52.3169V37.9192H70.4712V52.3169H84.3256C89.6925 52.3238 94.0375 56.7308 94.0307 62.0976V82.0073H31.498V62.0175C31.5049 56.6506 35.8866 52.3056 41.2534 52.3124L55.1266 52.3169Z" fill="#526FAA"/>
<path d="M54.0964 64.6781L62.7278 77.2309L71.4324 64.6781L62.7278 58.2849L54.0964 64.6781Z" fill="#F4EFED"/>
<path d="M62.7277 58.2849L57.1437 62.4209L62.7277 66.5566L68.3588 62.4209L62.7277 58.2849Z" fill="#FCC24C"/>
<path d="M62.7276 66.5566L58.7607 71.4619L62.7276 77.231L66.7283 71.4619L62.7276 66.5566Z" fill="#FCC24C"/>
<path d="M55.1267 48.8308L62.7278 58.2849L70.4713 48.8308V37.9192H55.1267V48.8308Z" fill="#F9D0B4"/>
<path d="M84.3258 52.3169H80.9169C86.2837 52.3237 90.6288 56.7265 90.6219 62.0931V82.0073H94.0308V62.0976C94.0377 56.7307 89.6926 52.3237 84.3258 52.3169Z" fill="#34518C"/>
<path d="M41.2534 52.3125L44.6623 52.3171C39.2955 52.3102 34.9138 56.6553 34.9069 62.0221V82.0075H31.498V62.0176C31.5049 56.6507 35.8866 52.3057 41.2534 52.3125Z" fill="#708DC8"/>
<path d="M43.5697 82.3154C43.2114 82.3154 42.9205 82.0246 42.9205 81.6662V72.7957C42.9205 72.4373 43.2114 72.1465 43.5697 72.1465C43.9281 72.1465 44.2189 72.4373 44.2189 72.7957V81.6662C44.2189 82.0249 43.9284 82.3154 43.5697 82.3154Z" fill="#333333"/>
<path d="M81.959 82.3154C81.6007 82.3154 81.3098 82.0246 81.3098 81.6662V72.7957C81.3098 72.4373 81.6007 72.1465 81.959 72.1465C82.3174 72.1465 82.6082 72.4373 82.6082 72.7957V81.6662C82.6082 82.0249 82.3174 82.3154 81.959 82.3154Z" fill="#333333"/>
<path d="M94.0307 82.6567H31.4981C31.1397 82.6567 30.8489 82.3659 30.8489 82.0075V62.0177C30.8524 59.2489 31.9389 56.6469 33.9082 54.6896C35.872 52.7381 38.4756 51.6637 41.2405 51.6637H41.2544L54.4778 51.6679V37.9197C54.4778 37.5613 54.7686 37.2705 55.127 37.2705H70.4713C70.8296 37.2705 71.1204 37.5613 71.1204 37.9197V51.6683H84.326C87.0935 51.6718 89.6961 52.7631 91.6547 54.7409C93.6091 56.7144 94.6835 59.3277 94.6799 62.0988V82.0075C94.6799 82.3659 94.3894 82.6567 94.0307 82.6567ZM32.1473 81.3583H93.3815V62.0978C93.3848 59.6708 92.4438 57.3828 90.7322 55.6543C89.0186 53.9239 86.7432 52.9696 84.325 52.9663H70.4713C70.1129 52.9663 69.8221 52.6755 69.8221 52.3171V38.5686H55.7762V52.3171C55.7762 52.4895 55.7077 52.6547 55.586 52.7764C55.4642 52.8981 55.299 52.9663 55.127 52.9663C55.127 52.9663 55.127 52.9663 55.1267 52.9663L41.2531 52.9621C41.2492 52.9621 41.2453 52.9621 41.2411 52.9621C38.8209 52.9621 36.5423 53.9024 34.8235 55.6108C33.1006 57.3227 32.1505 59.5984 32.1473 62.0186V81.3583Z" fill="#333333"/>
<path d="M47.5691 24.7844H46.4834C43.6763 24.7844 41.4005 27.0602 41.4005 29.8673C41.4005 32.6744 43.6759 34.9498 46.4834 34.9498H47.5691V24.7844Z" fill="#F9D0B4"/>
<path d="M79.074 24.7844H77.9879V34.9498H79.0737C81.8808 34.9498 84.1562 32.6744 84.1562 29.8673C84.1565 27.0602 81.8811 24.7844 79.074 24.7844Z" fill="#F9D0B4"/>
<path d="M62.7787 50.6224C54.3788 50.6224 47.5691 43.7244 47.5691 35.2155V24.5492C47.5691 16.0403 54.3785 9.14233 62.7787 9.14233C71.1785 9.14233 77.9882 16.0403 77.9882 24.5492V35.2155C77.9879 43.7244 71.1785 50.6224 62.7787 50.6224Z" fill="#F9D0B4"/>
<path d="M62.7786 9.14209C62.1937 9.14209 61.6179 9.17877 61.0502 9.24401C68.6356 10.1136 74.5313 16.6325 74.5313 24.549V35.2152C74.5313 43.1318 68.636 49.6506 61.0502 50.5202C61.6179 50.5855 62.1937 50.6221 62.7786 50.6221C71.1785 50.6221 77.9882 43.7242 77.9882 35.2152V24.549C77.9879 16.0401 71.1785 9.14209 62.7786 9.14209Z" fill="#F9D0B4"/>
<path d="M62.7787 9.14209C63.3633 9.14209 63.9394 9.17877 64.5071 9.24401C56.9213 10.1136 51.026 16.6325 51.026 24.549V35.2152C51.026 43.1318 56.9213 49.6506 64.5071 50.5202C63.9394 50.5855 63.3636 50.6221 62.7787 50.6221C54.3788 50.6221 47.5691 43.7242 47.5691 35.2152V24.549C47.5691 16.0401 54.3785 9.14209 62.7787 9.14209Z" fill="#F9D0B4"/>
<path d="M62.7787 51.2718C54.0344 51.2718 46.9203 44.0691 46.9203 35.2157V24.5495C46.9203 15.6962 54.0344 8.49341 62.7787 8.49341C71.523 8.49341 78.6371 15.6959 78.6371 24.5492V35.2154C78.6371 44.0691 71.523 51.2718 62.7787 51.2718ZM62.7787 9.79179C54.7502 9.79179 48.2187 16.4122 48.2187 24.5495V35.2157C48.2187 43.3533 54.7502 49.9734 62.7787 49.9734C70.8073 49.9734 77.3388 43.353 77.3388 35.2157V24.5495C77.3388 16.4119 70.8073 9.79179 62.7787 9.79179Z" fill="#333333"/>
<path d="M47.5694 35.599H46.4833C43.323 35.599 40.7516 33.0279 40.7516 29.8673C40.7516 26.7067 43.3227 24.1353 46.4833 24.1353H47.5694C47.9277 24.1353 48.2186 24.4261 48.2186 24.7844V34.9498C48.2186 35.3085 47.9277 35.599 47.5694 35.599ZM46.4833 25.4336C44.0388 25.4336 42.05 27.4224 42.05 29.8673C42.05 32.3121 44.0388 34.3006 46.4833 34.3006H46.9202V25.4336H46.4833Z" fill="#333333"/>
<path d="M79.0737 35.599H77.9879C77.6296 35.599 77.3387 35.3082 77.3387 34.9498V24.7844C77.3387 24.4261 77.6296 24.1353 77.9879 24.1353H79.0737C82.2343 24.1353 84.8057 26.7067 84.8057 29.8673C84.8057 33.0279 82.2343 35.599 79.0737 35.599ZM78.6371 34.3006H79.0737C81.5182 34.3006 83.5074 32.3118 83.5074 29.8673C83.5074 27.4228 81.5182 25.4336 79.0737 25.4336H78.6371V34.3006Z" fill="#333333"/>
<path d="M70.4712 48.8308L62.7277 58.285L71.4323 64.6782L73.7477 52.317L70.4712 48.8308Z" fill="#F4EFED"/>
<path d="M55.1267 48.8308L62.7278 58.285L54.0965 64.6782L51.7811 52.3153L55.1267 48.8308Z" fill="#F4EFED"/>
<path d="M71.4324 65.3274C71.296 65.3274 71.1613 65.2845 71.048 65.2014L62.3434 58.8082C62.1999 58.7027 62.1058 58.543 62.0834 58.3664C62.061 58.1898 62.1126 58.0116 62.2255 57.8737L69.9691 48.4195C70.0872 48.2747 70.2622 48.1884 70.4492 48.1819C70.6452 48.1803 70.8166 48.2501 70.9442 48.3861L74.2206 51.8722C74.3628 52.0232 74.4238 52.2325 74.3859 52.4364L72.0705 64.7976C72.0293 65.017 71.8784 65.1998 71.6709 65.2819C71.5937 65.3124 71.5129 65.3274 71.4324 65.3274ZM63.6635 58.1668L70.9848 63.5434L73.0492 52.5211L70.505 49.8143L63.6635 58.1668Z" fill="#333333"/>
<path d="M54.0965 65.3273C54.0163 65.3273 53.9361 65.3127 53.8595 65.2826C53.6511 65.2008 53.4999 65.0177 53.4587 64.7976L51.1433 52.4351C51.1047 52.229 51.168 52.017 51.3131 51.8661L54.659 48.3815C54.7882 48.2468 54.9703 48.1725 55.1556 48.1825C55.342 48.1907 55.5159 48.2789 55.6331 48.4244L63.2339 57.8785C63.3445 58.0162 63.3942 58.1931 63.3718 58.368C63.3494 58.543 63.2566 58.7017 63.1144 58.8069L54.4831 65.2001C54.3695 65.2838 54.2335 65.3273 54.0965 65.3273ZM52.4807 52.524L54.5435 63.5388L61.7985 58.1651L55.0836 49.813L52.4807 52.524Z" fill="#333333"/>
<path d="M34.9069 71.0532C34.5485 71.0532 34.2577 70.7624 34.2577 70.404V66.3106C34.2577 65.9522 34.5485 65.6614 34.9069 65.6614C35.2652 65.6614 35.5561 65.9522 35.5561 66.3106V70.404C35.5561 70.7627 35.2652 71.0532 34.9069 71.0532Z" fill="#333333"/>
<path d="M62.7277 77.8799C62.7274 77.8799 62.7268 77.8799 62.7265 77.8799C62.5132 77.8796 62.3139 77.7744 62.1925 77.5985L53.5612 65.0458C53.3632 64.7575 53.4291 64.3644 53.7098 64.1564L62.3412 57.7631C62.5703 57.5937 62.8832 57.5934 63.1117 57.7615L71.8164 64.1548C72.0998 64.3628 72.166 64.7588 71.9657 65.0477L63.2611 77.6005C63.1397 77.7757 62.9404 77.8799 62.7277 77.8799ZM54.9865 64.8267L62.7297 76.0882L70.5388 64.8273L62.729 59.0917L54.9865 64.8267Z" fill="#333333"/>
<path d="M62.7278 67.2057C62.5917 67.2057 62.4561 67.1632 62.3415 67.0781L56.7578 62.9421C56.5926 62.8198 56.4949 62.6263 56.4949 62.4205C56.4949 62.2147 56.5926 62.0213 56.7578 61.8989L62.3415 57.7629C62.5706 57.5935 62.8836 57.5931 63.1121 57.7613L68.7435 61.8973C68.9103 62.0193 69.0083 62.2138 69.0083 62.4205C69.0083 62.6273 68.91 62.8214 68.7435 62.9438L63.1121 67.0798C62.9978 67.1638 62.8628 67.2057 62.7278 67.2057ZM58.2347 62.4208L62.7294 65.7499L67.2623 62.4208L62.7294 59.0918L58.2347 62.4208Z" fill="#333333"/>
<path d="M62.7277 77.8803C62.7274 77.8803 62.7268 77.8803 62.7264 77.8803C62.5132 77.88 62.3139 77.7748 62.1925 77.5989L58.2256 71.8299C58.063 71.5929 58.075 71.2771 58.2561 71.0538L62.223 66.1488C62.3457 65.9969 62.5307 65.9083 62.7264 65.908H62.7277C62.9228 65.908 63.1075 65.9956 63.2309 66.1469L67.2315 71.0518C67.4142 71.2761 67.4269 71.5942 67.262 71.8321L63.2614 77.6012C63.1396 77.7761 62.9403 77.8803 62.7277 77.8803ZM59.5704 71.4933L62.7297 76.0886L65.9162 71.4936L62.7297 67.5864L59.5704 71.4933Z" fill="#333333"/>
<path d="M49.0986 14.1693C49.0986 14.1693 53.9588 13.1374 58.0101 16.1542C63.2455 20.0529 74.6073 23.9198 79.954 18.4218C79.954 18.4218 77.3423 5.62598 64.7938 5.62598C52.2449 5.6263 49.0986 14.1693 49.0986 14.1693Z" fill="#FCC24C"/>
<path d="M72.498 21.8055C71.2006 21.8055 69.9431 21.6568 68.8226 21.4504C64.8989 20.7275 60.6071 18.8978 57.6221 16.6749C53.8503 13.8665 49.2791 14.7942 49.233 14.8043C48.8831 14.8786 48.5374 14.655 48.4634 14.3041C48.389 13.9532 48.6127 13.6085 48.9636 13.5342C49.1732 13.4894 54.16 12.4779 58.3973 15.6336C60.6194 17.2884 64.5867 19.3499 69.0576 20.1734C72.2627 20.7639 76.6759 20.8612 79.4885 17.9694C79.7384 17.7123 80.1497 17.7068 80.4065 17.9568C80.6635 18.2067 80.6694 18.6176 80.4191 18.8747C78.2307 21.1255 75.2733 21.8055 72.498 21.8055Z" fill="#333333"/>
<path d="M64.9486 28.0974C64.8338 28.0976 64.7207 28.0709 64.6181 28.0195C64.5155 27.968 64.4264 27.8933 64.3579 27.8013C64.1849 27.5694 63.9623 27.3791 63.7062 27.2445C63.4501 27.1098 63.1672 27.0342 62.8781 27.0232C62.589 27.0121 62.3011 27.0659 62.0355 27.1806C61.7699 27.2953 61.5334 27.468 61.3433 27.6861L61.2049 27.8449C61.0766 27.9921 60.8951 28.0823 60.7004 28.0957C60.5056 28.1091 60.3135 28.0445 60.1663 27.9163C60.0191 27.788 59.9289 27.6065 59.9156 27.4118C59.9022 27.217 59.9667 27.0249 60.095 26.8777L60.2335 26.7182C60.568 26.3345 60.9843 26.0306 61.4516 25.8287C61.919 25.6268 62.4256 25.5321 62.9343 25.5516C63.443 25.571 63.9409 25.7041 64.3915 25.941C64.8421 26.178 65.2339 26.5128 65.5382 26.9209C65.6198 27.0303 65.6693 27.1603 65.6813 27.2962C65.6933 27.4321 65.6672 27.5687 65.6061 27.6907C65.5449 27.8127 65.451 27.9153 65.3349 27.9871C65.2188 28.0588 65.0851 28.0968 64.9486 28.0969V28.0974Z" fill="#333333"/>
<path d="M64.9487 28.3431C64.7958 28.3428 64.6451 28.307 64.5085 28.2385C64.3718 28.1699 64.253 28.0706 64.1613 27.9482C64.0102 27.7457 63.8158 27.5795 63.5921 27.4619C63.3685 27.3443 63.1214 27.2783 62.8689 27.2686C62.6164 27.259 62.3649 27.306 62.133 27.4062C61.901 27.5064 61.6944 27.6572 61.5283 27.8476L61.39 28.0064C61.3054 28.104 61.2025 28.184 61.0869 28.2418C60.9714 28.2996 60.8456 28.334 60.7168 28.3431C60.588 28.3522 60.4586 28.3358 60.3361 28.2947C60.2136 28.2537 60.1005 28.1889 60.0031 28.1041C59.9057 28.0192 59.826 27.916 59.7686 27.8003C59.7112 27.6845 59.6772 27.5586 59.6686 27.4298C59.6599 27.3009 59.6768 27.1716 59.7183 27.0492C59.7597 26.9269 59.8249 26.814 59.9101 26.7169L60.0486 26.5574C60.4072 26.146 60.8534 25.8202 61.3543 25.6038C61.8553 25.3873 62.3984 25.2858 62.9437 25.3066C63.4891 25.3274 64.0228 25.4701 64.5058 25.7241C64.9888 25.9781 65.4089 26.337 65.7351 26.7745C65.8438 26.9204 65.9099 27.0937 65.9258 27.275C65.9418 27.4562 65.907 27.6384 65.8255 27.801C65.7439 27.9637 65.6187 28.1005 65.4639 28.1961C65.309 28.2917 65.1307 28.3424 64.9487 28.3425V28.3431ZM62.805 26.7765C62.8323 26.7765 62.8598 26.7765 62.8874 26.7781C63.2133 26.7898 63.5323 26.8747 63.821 27.0265C64.1096 27.1783 64.3604 27.393 64.5548 27.6549C64.5931 27.707 64.6414 27.751 64.6968 27.7844C64.7522 27.8178 64.8137 27.8399 64.8777 27.8495C64.9417 27.859 65.0069 27.8558 65.0697 27.8401C65.1325 27.8243 65.1915 27.7963 65.2433 27.7576C65.2952 27.7189 65.3389 27.6704 65.372 27.6147C65.405 27.5591 65.4267 27.4975 65.4359 27.4334C65.445 27.3693 65.4414 27.3041 65.4252 27.2415C65.409 27.1788 65.3806 27.12 65.3416 27.0683C65.0592 26.6897 64.6956 26.379 64.2775 26.1592C63.8594 25.9393 63.3973 25.8159 62.9253 25.7978C62.4532 25.7798 61.9831 25.8677 61.5495 26.055C61.1158 26.2423 60.7296 26.5243 60.4191 26.8803L60.2805 27.0398C60.2372 27.0882 60.2039 27.1447 60.1825 27.2061C60.1612 27.2676 60.1523 27.3326 60.1563 27.3975C60.1603 27.4624 60.1772 27.5258 60.2059 27.5841C60.2347 27.6424 60.2747 27.6944 60.3237 27.7371C60.3727 27.7798 60.4297 27.8124 60.4914 27.8329C60.5531 27.8534 60.6183 27.8614 60.6831 27.8565C60.7479 27.8516 60.8111 27.8339 60.869 27.8043C60.9269 27.7748 60.9784 27.734 61.0204 27.6844L61.1588 27.5257C61.3634 27.2901 61.6163 27.1012 61.9004 26.9719C62.1844 26.8427 62.4929 26.776 62.805 26.7765Z" fill="#333333"/>
<path d="M49.7149 24.3809H58.9497C59.5142 24.3809 60.0556 24.6051 60.4547 25.0043C60.8539 25.4034 61.0781 25.9448 61.0781 26.5092V29.9075C61.0781 30.7934 60.9036 31.6706 60.5646 32.489C60.2256 33.3074 59.7287 34.0511 59.1024 34.6775C58.476 35.3039 57.7323 35.8007 56.9139 36.1397C56.0954 36.4788 55.2183 36.6532 54.3324 36.6532C53.4465 36.6533 52.5693 36.4788 51.7509 36.1398C50.9324 35.8008 50.1887 35.3039 49.5623 34.6775C48.9359 34.051 48.439 33.3074 48.1 32.4889C47.761 31.6705 47.5865 30.7933 47.5865 29.9074V26.5091C47.5866 25.9447 47.8108 25.4033 48.21 25.0042C48.6091 24.6051 49.1505 24.3809 49.7149 24.3809Z" fill="#333333"/>
<path d="M49.7149 24.3809H50.8191C50.5396 24.3808 50.2628 24.4359 50.0045 24.5428C49.7463 24.6498 49.5117 24.8066 49.314 25.0042C49.1164 25.2019 48.9596 25.4365 48.8527 25.6947C48.7457 25.953 48.6907 26.2297 48.6907 26.5092V29.9075C48.6909 31.6008 49.328 33.232 50.4755 34.4772C51.6229 35.7224 53.1967 36.4905 54.8843 36.6288C54.7022 36.6437 54.5184 36.6534 54.3323 36.6534C53.4464 36.6534 52.5692 36.4789 51.7507 36.1398C50.9323 35.8008 50.1886 35.3039 49.5622 34.6775C48.9358 34.0511 48.439 33.3074 48.1 32.4889C47.761 31.6705 47.5865 30.7933 47.5865 29.9074V26.5091C47.5865 26.2296 47.6416 25.9529 47.7486 25.6946C47.8555 25.4364 48.0123 25.2018 48.2099 25.0042C48.4076 24.8065 48.6422 24.6498 48.9004 24.5428C49.1587 24.4359 49.4354 24.3808 49.7149 24.3809Z" fill="#333333"/>
<path d="M54.3323 36.8985C52.4788 36.8964 50.7018 36.1592 49.3911 34.8485C48.0805 33.5379 47.3433 31.7609 47.3412 29.9074V26.5091C47.3419 25.8798 47.5923 25.2765 48.0373 24.8315C48.4823 24.3865 49.0856 24.1362 49.7149 24.1355H58.9497C59.5791 24.1362 60.1824 24.3865 60.6274 24.8315C61.0725 25.2766 61.3228 25.8799 61.3235 26.5092V29.9075C61.3213 31.761 60.5841 33.538 59.2734 34.8486C57.9628 36.1592 56.1858 36.8964 54.3323 36.8985ZM49.7149 24.6262C49.2157 24.6268 48.7371 24.8254 48.3841 25.1784C48.0311 25.5314 47.8325 26.01 47.8319 26.5092V29.9075C47.8394 31.6266 48.5275 33.2728 49.7458 34.4858C50.964 35.6988 52.6132 36.3798 54.3323 36.3798C56.0515 36.3798 57.7006 35.6988 58.9189 34.4858C60.1371 33.2728 60.8253 31.6266 60.8328 29.9075V26.5092C60.8322 26.01 60.6336 25.5314 60.2806 25.1784C59.9276 24.8254 59.449 24.6268 58.9497 24.6262H49.7149Z" fill="#333333"/>
<path d="M48.5681 29.0981C48.503 29.0981 48.4406 29.0723 48.3946 29.0263C48.3486 28.9803 48.3228 28.9179 48.3228 28.8528V27.3806C48.3228 27.3155 48.3486 27.2531 48.3946 27.2071C48.4406 27.1611 48.503 27.1353 48.5681 27.1353C48.6332 27.1353 48.6956 27.1611 48.7416 27.2071C48.7876 27.2531 48.8135 27.3155 48.8135 27.3806V28.8528C48.8135 28.9179 48.7876 28.9803 48.7416 29.0263C48.6956 29.0723 48.6332 29.0981 48.5681 29.0981Z" fill="#333333"/>
<path d="M66.6482 24.3809H75.883C76.4474 24.3809 76.9888 24.6051 77.388 25.0043C77.7871 25.4034 78.0114 25.9448 78.0114 26.5092V29.9075C78.0114 31.6966 77.3006 33.4124 76.0356 34.6775C74.7705 35.9425 73.0547 36.6532 71.2656 36.6532C69.4765 36.6532 67.7607 35.9425 66.4957 34.6775C65.2306 33.4124 64.5199 31.6966 64.5199 29.9075V26.5092C64.5199 25.9448 64.7441 25.4034 65.1432 25.0043C65.5424 24.6051 66.0837 24.3809 66.6482 24.3809Z" fill="#333333"/>
<path d="M75.883 24.3809H74.7789C75.0584 24.3808 75.3352 24.4359 75.5934 24.5428C75.8517 24.6498 76.0863 24.8066 76.2839 25.0042C76.4816 25.2019 76.6384 25.4365 76.7453 25.6947C76.8523 25.953 76.9073 26.2297 76.9073 26.5092V29.9075C76.9071 31.6008 76.27 33.232 75.1225 34.4772C73.9751 35.7224 72.4012 36.4905 70.7136 36.6288C70.8958 36.6437 71.0796 36.6534 71.2657 36.6534C72.1516 36.6534 73.0288 36.4789 73.8472 36.1398C74.6657 35.8008 75.4093 35.3039 76.0357 34.6775C76.6621 34.0511 77.159 33.3074 77.498 32.4889C77.837 31.6705 78.0114 30.7933 78.0114 29.9074V26.5091C78.0114 26.2296 77.9564 25.9529 77.8494 25.6946C77.7424 25.4364 77.5857 25.2018 77.388 25.0042C77.1904 24.8065 76.9557 24.6498 76.6975 24.5428C76.4393 24.4359 76.1625 24.3808 75.883 24.3809Z" fill="#333333"/>
<path d="M71.2656 36.8984C69.4121 36.8963 67.6351 36.1591 66.3244 34.8484C65.0138 33.5378 64.2765 31.7608 64.2744 29.9073V26.509C64.2751 25.8797 64.5254 25.2763 64.9705 24.8313C65.4155 24.3863 66.0188 24.136 66.6482 24.1353H75.883C76.5123 24.136 77.1157 24.3863 77.5607 24.8313C78.0057 25.2764 78.256 25.8798 78.2567 26.5091V29.9074C78.2546 31.7609 77.5174 33.5379 76.2067 34.8485C74.8961 36.1591 73.1191 36.8963 71.2656 36.8984ZM66.6482 24.6261C66.1489 24.6267 65.6703 24.8253 65.3173 25.1783C64.9643 25.5313 64.7657 26.0099 64.7651 26.5091V29.9074C64.7726 31.6265 65.4608 33.2727 66.679 34.4857C67.8973 35.6986 69.5464 36.3796 71.2656 36.3796C72.9847 36.3796 74.6339 35.6986 75.8521 34.4857C77.0704 33.2727 77.7585 31.6265 77.766 29.9074V26.5091C77.7654 26.0099 77.5668 25.5313 77.2138 25.1783C76.8608 24.8253 76.3822 24.6267 75.883 24.6261H66.6482Z" fill="#333333"/>
</svg>
