<svg width="105" height="83" viewBox="0 0 105 83" fill="none" xmlns="http://www.w3.org/2000/svg">
<circle cx="6.64952" cy="75.4376" r="6.21739" fill="#C0D9ED"/>
<circle cx="11.7365" cy="13.829" r="3.3913" fill="#C0D9ED"/>
<circle cx="98.78" cy="25.1336" r="5.65217" fill="#C0D9ED"/>
<circle cx="50.7364" cy="43.7856" r="39" fill="#C0D9ED"/>
<path d="M64.2064 42.843H51.3644C45.9406 42.843 40.7389 44.9976 36.9037 48.8328C33.0684 52.6681 30.9138 57.8698 30.9138 63.2936V71.7121C30.9139 73.1586 31.4708 74.5496 32.469 75.5966L36.1128 79.4184C36.2065 78.8971 36.4804 78.4253 36.8866 78.0853C37.2928 77.7454 37.8055 77.5589 38.3352 77.5585H77.2363C77.766 77.5589 78.2787 77.7454 78.6849 78.0853C79.0911 78.4253 79.365 78.8971 79.4586 79.4184L83.1025 75.5966C84.1007 74.5496 84.6576 73.1586 84.6577 71.7121V63.2936C84.6577 60.6079 84.1287 57.9485 83.1009 55.4673C82.0731 52.9861 80.5667 50.7316 78.6676 48.8326C76.7685 46.9336 74.514 45.4272 72.0327 44.3995C69.5515 43.3718 66.8921 42.8429 64.2064 42.843Z" fill="#FCC24C"/>
<path d="M57.888 43.2557H57.6839C55.5746 43.2581 53.4863 42.8372 51.5426 42.0178V44.2936C51.5426 45.9495 52.2004 47.5375 53.3712 48.7083C54.5421 49.8792 56.1301 50.537 57.7859 50.537C59.4418 50.537 61.0298 49.8792 62.2006 48.7083C63.3715 47.5375 64.0293 45.9495 64.0293 44.2936V42.0178C62.0856 42.8372 59.9973 43.2581 57.888 43.2557Z" fill="#F9D0B4"/>
<path d="M57.7858 0.987793C52.7495 0.987793 47.9196 2.98839 44.3583 6.54949C40.7971 10.1106 38.7963 14.9405 38.7961 19.9767V25.7078C39.174 24.5656 39.9882 23.769 40.9404 23.769C41.2716 23.7719 41.5955 23.8664 41.8763 24.0421V21.3975C41.8716 17.8217 43.2805 14.389 45.796 11.8475C46.5082 11.1469 47.4028 10.6605 48.378 10.4436C49.3532 10.2268 50.3697 10.2882 51.3117 10.6209C53.4104 11.2531 55.5942 11.5569 57.7858 11.5217C59.9774 11.5569 62.1612 11.2531 64.2599 10.6209C65.2014 10.2889 66.2172 10.2278 67.1917 10.4447C68.1662 10.6615 69.0602 11.1476 69.7721 11.8475C72.2876 14.389 73.6965 17.8217 73.6918 21.3975V24.0421C73.9726 23.8664 74.2965 23.7719 74.6277 23.769C75.5791 23.769 76.394 24.5656 76.7719 25.7078V19.9767C76.7718 14.9411 74.7715 10.1117 71.211 6.55073C67.6505 2.98973 62.8214 0.988726 57.7858 0.987793Z" fill="#5B5D60"/>
<path d="M74.6312 23.769C74.3 23.7719 73.976 23.8664 73.6952 24.0421V27.4473C73.6951 28.3116 73.6245 29.1744 73.4841 30.0272C73.8061 30.2991 74.2113 30.453 74.6326 30.4635C75.9422 30.4635 77.0034 28.9652 77.0034 27.1166C77.0034 25.2679 75.9415 23.769 74.6312 23.769Z" fill="#F9D0B4"/>
<path d="M41.8764 27.4473V24.0421C41.5956 23.8664 41.2717 23.7719 40.9405 23.769C39.6309 23.769 38.5697 25.2679 38.5697 27.1166C38.5697 28.9652 39.6309 30.4635 40.9405 30.4635C41.3618 30.4529 41.7669 30.299 42.089 30.0272C41.9481 29.1744 41.8771 28.3116 41.8764 27.4473Z" fill="#F9D0B4"/>
<path d="M69.7755 11.8475C69.0636 11.1476 68.1696 10.6615 67.1951 10.4447C66.2206 10.2279 65.2048 10.2889 64.2633 10.6209C62.1646 11.2531 59.9808 11.5569 57.7892 11.5217C55.5976 11.5569 53.4138 11.2531 51.315 10.6209C50.3735 10.2889 49.3578 10.2279 48.3833 10.4447C47.4088 10.6615 46.5147 11.1476 45.8029 11.8475C43.2874 14.389 41.8785 17.8217 41.8832 21.3976V27.4495C41.8836 31.6404 43.5482 35.6597 46.5111 38.6236C49.474 41.5876 53.4927 43.2537 57.6836 43.2555H57.8877C59.9636 43.2555 62.0192 42.8466 63.9371 42.0522C65.855 41.2578 67.5977 40.0933 69.0655 38.6254C70.5334 37.1575 71.6977 35.4148 72.4921 33.4968C73.2865 31.5789 73.6953 29.5233 73.6952 27.4474V21.3954C73.6993 17.8203 72.2904 14.3885 69.7755 11.8475Z" fill="#F9D0B4"/>
<path d="M54.0815 18.6929H47.8354C46.8884 18.6929 45.9802 19.0691 45.3106 19.7387C44.641 20.4083 44.2648 21.3165 44.2648 22.2635V24.6998C44.265 25.7992 44.7018 26.8535 45.4792 27.6309C46.2566 28.4083 47.3109 28.8451 48.4103 28.8453H52.3835C53.4828 28.8451 54.5371 28.4083 55.3144 27.6309C56.0917 26.8534 56.5284 25.7991 56.5284 24.6998V21.1397C56.5284 20.8183 56.4652 20.5001 56.3423 20.2032C56.2194 19.9063 56.0391 19.6365 55.8119 19.4093C55.5847 19.1821 55.3149 19.0019 55.018 18.8789C54.7211 18.756 54.4029 18.6928 54.0815 18.6929Z" fill="#D4FBFF"/>
<path d="M67.7357 18.6929H60.6528C60.2259 18.6929 59.8165 18.8624 59.5146 19.1642C59.2126 19.466 59.0429 19.8754 59.0427 20.3023V24.6998C59.0429 25.7992 59.4797 26.8535 60.2571 27.6309C61.0345 28.4083 62.0889 28.8451 63.1883 28.8453H67.1614C68.2608 28.8451 69.3151 28.4083 70.0923 27.6309C70.8696 26.8534 71.3063 25.7991 71.3063 24.6998V22.2635C71.3064 21.7946 71.2141 21.3302 71.0347 20.897C70.8553 20.4637 70.5923 20.0701 70.2607 19.7385C69.9291 19.4069 69.5355 19.1439 69.1022 18.9645C68.669 18.7851 68.2046 18.6928 67.7357 18.6929Z" fill="#D4FBFF"/>
<path d="M77.2372 49.833H38.3353C37.0858 49.833 36.0729 50.8459 36.0729 52.0954V75.2961C36.0729 76.5456 37.0858 77.5585 38.3353 77.5585H77.2372C78.4867 77.5585 79.4996 76.5456 79.4996 75.2961V52.0954C79.4996 50.8459 78.4867 49.833 77.2372 49.833Z" fill="#3A70BF"/>
<path d="M38.3353 49.833H77.2365C77.5336 49.8329 77.8279 49.8914 78.1024 50.005C78.3769 50.1187 78.6264 50.2853 78.8365 50.4955C79.0466 50.7056 79.2132 50.955 79.3269 51.2295C79.4406 51.5041 79.499 51.7983 79.4989 52.0954V54.2066C79.499 53.9094 79.4406 53.6152 79.3269 53.3407C79.2132 53.0661 79.0466 52.8167 78.8365 52.6066C78.6264 52.3965 78.3769 52.2298 78.1024 52.1162C77.8279 52.0025 77.5336 51.9441 77.2365 51.9441H38.3353C38.0382 51.9441 37.7439 52.0025 37.4694 52.1162C37.1949 52.2298 36.9454 52.3965 36.7353 52.6066C36.5252 52.8167 36.3586 53.0661 36.2449 53.3407C36.1312 53.6152 36.0728 53.9094 36.0729 54.2066V52.0954C36.0728 51.7983 36.1312 51.5041 36.2449 51.2295C36.3586 50.955 36.5252 50.7056 36.7353 50.4955C36.9454 50.2853 37.1949 50.1187 37.4694 50.005C37.7439 49.8914 38.0382 49.8329 38.3353 49.833Z" fill="white"/>
<path d="M77.2365 77.5586H38.3353C37.7353 77.5586 37.1598 77.797 36.7355 78.2212C36.3112 78.6455 36.0729 79.221 36.0729 79.821C36.0729 80.4211 36.3112 80.9965 36.7355 81.4208C37.1598 81.8451 37.7353 82.0835 38.3353 82.0835H77.2365C77.8365 82.0835 78.412 81.8451 78.8363 81.4208C79.2605 80.9965 79.4989 80.4211 79.4989 79.821C79.4989 79.221 79.2605 78.6455 78.8363 78.2212C78.412 77.797 77.8365 77.5586 77.2365 77.5586Z" fill="#5290DB"/>
<path d="M65.3472 42.169C67.5133 41.0676 69.4105 39.5032 70.9045 37.5867C72.3985 35.6702 73.4527 33.4486 73.9923 31.0792C74.2004 31.137 74.4153 31.1666 74.6313 31.1672C76.3561 31.1672 77.7065 29.3882 77.7065 27.1166C77.7082 26.5905 77.6313 26.067 77.4785 25.5635V19.9768C77.4474 14.7743 75.3589 9.79541 71.6691 6.12762C67.9793 2.45983 62.9881 0.401123 57.7855 0.401123C52.5829 0.401123 47.5916 2.45983 43.9018 6.12762C40.2121 9.79541 38.1236 14.7743 38.0925 19.9768V25.5656C37.9405 26.0676 37.8639 26.5894 37.8652 27.1138C37.8652 29.3854 39.2156 31.1644 40.9404 31.1644C41.1563 31.1638 41.3713 31.1342 41.5793 31.0764C42.1186 33.4463 43.1726 35.6685 44.6666 37.5854C46.1606 39.5024 48.0581 41.0673 50.2244 42.169C44.8211 42.4671 39.7367 44.822 36.0148 48.7504C32.2928 52.6788 30.2156 57.8828 30.2095 63.2944V71.7122C30.2069 73.3404 30.834 74.9065 31.9596 76.083L35.3839 79.6719C35.3839 79.7219 35.3691 79.769 35.3691 79.8197C35.3698 80.606 35.6825 81.3599 36.2384 81.916C36.7944 82.4721 37.5482 82.7849 38.3345 82.7858H77.2364C78.0228 82.7849 78.7767 82.4721 79.3328 81.916C79.8888 81.36 80.2016 80.6061 80.2026 79.8197C80.2026 79.769 80.1906 79.7219 80.1878 79.6719L83.6113 76.083C84.7372 74.9067 85.3646 73.3405 85.3622 71.7122V63.2944C85.356 57.8828 83.2788 52.6788 79.5569 48.7504C75.8349 44.822 70.7506 42.4671 65.3472 42.169ZM52.8268 49.1294H38.3345C38.0432 49.1332 37.754 49.1807 37.4767 49.2702C41.0391 45.7317 45.8193 43.6887 50.8388 43.5595V44.2928C50.8408 46.1035 51.5549 47.8407 52.8268 49.1294ZM55.0913 49.1294C54.2296 48.6495 53.5117 47.9482 53.0115 47.0981C52.5114 46.248 52.2472 45.2798 52.2462 44.2935V43.0353C53.9937 43.6474 55.8321 43.9598 57.6838 43.9593H57.8879C59.7395 43.9598 61.5779 43.6474 63.3254 43.0353V44.2935C63.3245 45.2798 63.0603 46.248 62.5601 47.0981C62.06 47.9482 61.342 48.6495 60.4803 49.1294H55.0913ZM64.7322 44.2935V43.5603C69.7513 43.6898 74.5312 45.7327 78.0935 49.2709C77.8162 49.1816 77.5271 49.1342 77.2357 49.1301H62.7449C64.0168 47.8414 64.7301 46.1042 64.7322 44.2935ZM71.9952 21.9725C71.9209 20.893 71.4402 19.8817 70.6499 19.1426C69.8595 18.4034 68.8184 17.9914 67.7363 17.9895H60.6527C60.0394 17.99 59.4513 18.2339 59.0175 18.6676C58.5837 19.1012 58.3397 19.6892 58.3389 20.3026V20.8416H57.2017C57.1293 20.0634 56.7695 19.3401 56.1926 18.8127C55.6157 18.2854 54.8631 17.9919 54.0815 17.9895H47.8353C46.7531 17.9912 45.7118 18.4032 44.9213 19.1423C44.1309 19.8815 43.65 20.8928 43.5758 21.9725L42.58 22.254V21.3976C42.5718 18.0061 43.9085 14.7498 46.297 12.3422C46.717 11.9208 47.2168 11.5875 47.7672 11.3618C48.3176 11.1361 48.9076 11.0225 49.5024 11.0277C50.0408 11.0287 50.5754 11.1167 51.0858 11.288C53.2574 11.9444 55.5175 12.2606 57.7858 12.2254C60.0542 12.2606 62.3143 11.9444 64.4859 11.288C65.3021 10.9964 66.1839 10.9408 67.0303 11.1275C67.8767 11.3142 68.6533 11.7357 69.2711 12.3436C71.6595 14.7513 72.9961 18.0076 72.9881 21.399V22.254L71.9952 21.9725ZM70.6025 22.2666V24.7029C70.6008 25.6151 70.2378 26.4895 69.5928 27.1346C68.9479 27.7796 68.0736 28.1429 67.1614 28.1447H63.1882C62.2759 28.1431 61.4014 27.7799 60.7563 27.1348C60.1112 26.4897 59.748 25.6152 59.7464 24.7029V20.3026C59.7467 20.0624 59.8424 19.8321 60.0123 19.6623C60.1822 19.4926 60.4125 19.3971 60.6527 19.3969H67.7363C68.4963 19.3978 69.2249 19.7002 69.7622 20.2377C70.2996 20.7752 70.6018 21.5038 70.6025 22.2638V22.2666ZM55.8246 21.1407V24.7008C55.8229 25.613 55.4598 26.4874 54.8149 27.1324C54.1699 27.7775 53.2956 28.1408 52.3834 28.1426H48.4103C47.498 28.141 46.6235 27.7778 45.9784 27.1327C45.3333 26.4876 44.9701 25.6131 44.9684 24.7008V22.2638C44.9692 21.5037 45.2715 20.7749 45.8089 20.2374C46.3464 19.6999 47.0752 19.3977 47.8353 19.3969H54.0815C54.5436 19.3975 54.9867 19.5813 55.3134 19.9081C55.6402 20.2348 55.824 20.6786 55.8246 21.1407ZM74.6313 29.7598C74.498 29.7562 74.3668 29.7266 74.2449 29.6725C74.3465 28.9351 74.398 28.1917 74.399 27.4474V24.5059C74.4751 24.4873 74.553 24.4774 74.6313 24.4763C75.5355 24.4763 76.2991 25.6867 76.2991 27.1201C76.2991 28.5536 75.5355 29.7598 74.6313 29.7598ZM57.7858 1.69153C62.6337 1.69693 67.2815 3.62514 70.7095 7.05312C74.1375 10.4811 76.0657 15.1289 76.0711 19.9768V23.5242C75.6492 23.2279 75.1468 23.0678 74.6313 23.0654C74.5525 23.0654 74.4772 23.0808 74.399 23.0886V21.3997C74.4086 17.6374 72.9262 14.0247 70.2767 11.3535C69.4741 10.5574 68.4634 10.0038 67.3604 9.75608C66.2575 9.50838 65.107 9.57666 64.0411 9.9531C62.013 10.5618 59.903 10.8536 57.7858 10.818C55.6686 10.8536 53.5586 10.5618 51.5305 9.9531C50.4646 9.57666 49.3142 9.50838 48.2112 9.75608C47.1083 10.0038 46.0975 10.5574 45.2949 11.3535C42.646 14.0242 41.1637 17.636 41.1726 21.3976V23.0865C41.0945 23.0787 41.0192 23.0632 40.9404 23.0632C40.4245 23.0656 39.9218 23.226 39.4999 23.5228V19.9768C39.5055 15.1288 41.4338 10.481 44.8619 7.05307C48.29 3.62512 52.9379 1.69693 57.7858 1.69153ZM40.9404 29.7598C40.0361 29.7598 39.2726 28.5494 39.2726 27.1166C39.2726 25.6839 40.0361 24.4728 40.9404 24.4728C41.0187 24.4738 41.0966 24.4837 41.1726 24.5023V27.4474C41.1736 28.1917 41.2251 28.9351 41.3267 29.6725C41.2049 29.7266 41.0736 29.7562 40.9404 29.7598ZM42.58 27.4474V23.7177L43.561 23.4362V24.7029C43.5627 25.9885 44.0741 27.2209 44.9832 28.13C45.8922 29.0391 47.1247 29.5505 48.4103 29.5522H52.3834C53.6689 29.5503 54.9012 29.0388 55.8101 28.1298C56.719 27.2207 57.2303 25.9884 57.232 24.7029V22.2491H58.3389V24.7001C58.3406 25.9857 58.8521 27.2181 59.7611 28.1272C60.6702 29.0362 61.9026 29.5477 63.1882 29.5494H67.1614C68.4468 29.5475 69.6791 29.036 70.588 28.1269C71.4969 27.2179 72.0083 25.9856 72.0099 24.7001V23.4334L72.9951 23.7149V27.4446C72.9914 31.4501 71.3986 35.2905 68.5662 38.1229C65.7338 40.9553 61.8934 42.5481 57.8879 42.5518H57.6838C53.6793 42.5474 49.8401 40.9545 47.0085 38.1229C44.1769 35.2912 42.5843 31.4519 42.58 27.4474ZM32.9779 75.1119C32.1026 74.1967 31.615 72.9786 31.6169 71.7122V63.2944C31.6135 59.1162 32.9427 55.0458 35.4113 51.6747C35.3872 51.8143 35.373 51.9554 35.3691 52.097V62.9918C35.3691 63.1785 35.4432 63.3575 35.5752 63.4894C35.7072 63.6214 35.8862 63.6955 36.0728 63.6955C36.2594 63.6955 36.4384 63.6214 36.5704 63.4894C36.7024 63.3575 36.7765 63.1785 36.7765 62.9918V52.0956C36.7767 51.6823 36.9409 51.2861 37.233 50.9938C37.5251 50.7016 37.9213 50.5372 38.3345 50.5368H77.2364C77.6497 50.5372 78.0459 50.7016 78.3382 50.9938C78.6304 51.286 78.7948 51.6823 78.7951 52.0956V75.2962C78.7946 75.7095 78.6302 76.1056 78.338 76.3978C78.0458 76.69 77.6496 76.8544 77.2364 76.855H38.3345C37.9214 76.8544 37.5253 76.69 37.2332 76.3978C36.9411 76.1055 36.7769 75.7094 36.7765 75.2962V72.411C36.7765 72.2244 36.7024 72.0454 36.5704 71.9134C36.4384 71.7814 36.2594 71.7073 36.0728 71.7073C35.8862 71.7073 35.7072 71.7814 35.5752 71.9134C35.4432 72.0454 35.3691 72.2244 35.3691 72.411V75.2962C35.3698 75.7289 35.4661 76.1561 35.6512 76.5472C35.8362 76.9383 36.1054 77.2837 36.4394 77.5587C36.2268 77.7315 36.039 77.9327 35.8814 78.1568L32.9779 75.1119ZM77.2364 81.3798H38.3345C37.9211 81.3798 37.5247 81.2156 37.2324 80.9233C36.94 80.631 36.7758 80.2345 36.7758 79.8211C36.7758 79.4077 36.94 79.0112 37.2324 78.7189C37.5247 78.4266 37.9211 78.2624 38.3345 78.2624H77.2364C77.6498 78.2624 78.0463 78.4266 78.3386 78.7189C78.6309 79.0112 78.7951 79.4077 78.7951 79.8211C78.7951 80.2345 78.6309 80.631 78.3386 80.9233C78.0463 81.2156 77.6498 81.3798 77.2364 81.3798ZM83.9547 71.7122C83.9566 72.9787 83.4687 74.1968 82.5931 75.1119L79.6895 78.1568C79.5319 77.9327 79.3441 77.7315 79.1315 77.5587C79.4657 77.2837 79.7349 76.9384 79.9201 76.5473C80.1052 76.1562 80.2017 75.729 80.2026 75.2962V52.0956C80.1986 51.954 80.1845 51.8129 80.1603 51.6733C82.6292 55.0447 83.9584 59.1157 83.9547 63.2944V71.7122Z" fill="#333333"/>
<path d="M36.0727 70.5643C36.2594 70.5643 36.4384 70.4901 36.5703 70.3582C36.7023 70.2262 36.7764 70.0472 36.7764 69.8606V65.6383C36.7764 65.4516 36.7023 65.2727 36.5703 65.1407C36.4384 65.0087 36.2594 64.9346 36.0727 64.9346C35.8861 64.9346 35.7071 65.0087 35.5751 65.1407C35.4432 65.2727 35.369 65.4516 35.369 65.6383V69.8606C35.369 70.0472 35.4432 70.2262 35.5751 70.3582C35.7071 70.4901 35.8861 70.5643 36.0727 70.5643Z" fill="#333333"/>
<path d="M50.7555 61.7825C50.2131 61.7825 49.7869 62.2087 49.7869 62.7511V66.7808C49.7869 67.3233 50.2131 67.7495 50.7555 67.7495C51.298 67.7495 51.7242 67.3233 51.7242 66.7808V62.7511C51.7242 62.2474 51.298 61.7825 50.7555 61.7825Z" fill="#333333"/>
<path d="M55.4822 61.7825C54.9398 61.7825 54.5135 62.2087 54.5135 62.7511V66.7808C54.5135 67.3233 54.9398 67.7495 55.4822 67.7495C56.0247 67.7495 56.4509 67.3233 56.4509 66.7808V62.7511C56.4509 62.2474 55.9859 61.7825 55.4822 61.7825Z" fill="#333333"/>
<path d="M60.1711 61.7825C59.6286 61.7825 59.2024 62.2087 59.2024 62.7511V66.7808C59.2024 67.3233 59.6286 67.7495 60.1711 67.7495C60.7135 67.7495 61.1397 67.3233 61.1397 66.7808V62.7511C61.1397 62.2474 60.7135 61.7825 60.1711 61.7825Z" fill="#333333"/>
<path d="M64.8597 61.7825C64.3172 61.7825 63.891 62.2087 63.891 62.7511V66.7808C63.891 67.3233 64.3172 67.7495 64.8597 67.7495C65.4021 67.7495 65.8283 67.3233 65.8283 66.7808V62.7511C65.8283 62.2474 65.4021 61.7825 64.8597 61.7825Z" fill="#333333"/>
</svg>
