<svg width="22" height="23" viewBox="0 0 22 23" fill="none" xmlns="http://www.w3.org/2000/svg">
<path fill-rule="evenodd" clip-rule="evenodd" d="M4.52961 10.1015C6.22559 13.4346 8.958 16.1552 12.2911 17.863L14.8821 15.2719C15.2001 14.9539 15.6712 14.8479 16.0835 14.9892C17.4025 15.425 18.8276 15.6606 20.2881 15.6606C20.9358 15.6606 21.4658 16.1906 21.4658 16.8383V20.9487C21.4658 21.5965 20.9358 22.1265 20.2881 22.1265C9.22888 22.1265 0.266113 13.1637 0.266113 2.10452C0.266113 1.45675 0.796106 0.926758 1.44388 0.926758H5.56604C6.21381 0.926758 6.7438 1.45675 6.7438 2.10452C6.7438 3.57672 6.97936 4.99004 7.41513 6.30913C7.54468 6.72135 7.45046 7.18067 7.12069 7.51045L4.52961 10.1015Z" fill="#2EABE1"/>
</svg>
