<svg width="115" height="87" viewBox="0 0 115 87" fill="none" xmlns="http://www.w3.org/2000/svg">
<circle cx="6.95846" cy="78.6523" r="6.83688" fill="#C0D9ED"/>
<circle cx="108.269" cy="23.3355" r="6.21535" fill="#C0D9ED"/>
<circle cx="12.5524" cy="10.905" r="3.72921" fill="#C0D9ED"/>
<circle cx="55.4381" cy="43.8463" r="42.8859" fill="#C0D9ED"/>
<path d="M90.4002 84.3042H29.9824V15.7685L44.0893 1.66162H90.4002V84.3042Z" fill="white"/>
<path d="M29.9824 15.7684V84.3041H33.3148V12.436L29.9824 15.7684Z" fill="white"/>
<path d="M87.0676 1.66162H90.4V84.3042H87.0676V1.66162Z" fill="#D6D1CF"/>
<path d="M90.4011 84.9716H29.9834C29.6155 84.9716 29.3169 84.673 29.3169 84.3052V15.7695C29.3169 15.5928 29.3872 15.4232 29.5122 15.2983L43.6194 1.19137C43.7444 1.06641 43.9136 0.996094 44.0906 0.996094H90.4011C90.769 0.996094 91.0676 1.29467 91.0676 1.66257V84.3052C91.0676 84.673 90.769 84.9716 90.4011 84.9716ZM30.6498 83.6387H89.7346V2.32904H44.3665L30.6498 16.0457V83.6387Z" fill="#333333"/>
<path d="M32.6481 28.9903C32.2803 28.9903 31.9817 28.6917 31.9817 28.3239V24.3251C31.9817 23.9573 32.2803 23.6587 32.6481 23.6587C33.016 23.6587 33.3146 23.9573 33.3146 24.3251V28.3239C33.3146 28.6921 33.0164 28.9903 32.6481 28.9903Z" fill="#333333"/>
<path d="M81.1041 49.1884H39.2783C38.9104 49.1884 38.6118 48.8898 38.6118 48.5219C38.6118 48.154 38.9104 47.8555 39.2783 47.8555H81.1044C81.4723 47.8555 81.7709 48.154 81.7709 48.5219C81.7709 48.8898 81.4723 49.1884 81.1041 49.1884Z" fill="#333333"/>
<path d="M81.1041 61.5234H39.2783C38.9104 61.5234 38.6118 61.2248 38.6118 60.8569C38.6118 60.489 38.9104 60.1904 39.2783 60.1904H81.1044C81.4723 60.1904 81.7709 60.489 81.7709 60.8569C81.7709 61.2248 81.4723 61.5234 81.1041 61.5234Z" fill="#333333"/>
<path d="M81.1041 73.8593H39.2783C38.9104 73.8593 38.6118 73.5607 38.6118 73.1928C38.6118 72.8249 38.9104 72.5264 39.2783 72.5264H81.1044C81.4723 72.5264 81.7709 72.8249 81.7709 73.1928C81.7709 73.5607 81.4723 73.8593 81.1041 73.8593Z" fill="#333333"/>
<path d="M44.0889 1.66162V15.7681H29.9824L44.0889 1.66162Z" fill="#526FAA"/>
<path d="M44.0891 16.4347H29.9823C29.7127 16.4347 29.4698 16.2724 29.3665 16.0232C29.2632 15.7742 29.3202 15.4877 29.5111 15.2971L43.6179 1.19059C43.8082 0.999649 44.0955 0.942667 44.344 1.04597C44.5933 1.14927 44.7556 1.39219 44.7556 1.66177V15.7682C44.7556 16.1365 44.457 16.4347 44.0891 16.4347ZM31.5915 15.1018H43.4227V3.27092L31.5915 15.1018Z" fill="#333333"/>
<path d="M75.5248 23.6221C75.5248 15.1533 68.6595 8.2876 60.1906 8.2876C51.7218 8.2876 44.8564 15.1533 44.8564 23.6221C44.8564 31.1863 50.3345 37.4664 57.5387 38.7234L58.2595 39.972L60.1906 43.3164L62.1217 39.9717L62.8425 38.7231C70.0468 37.4664 75.5248 31.1859 75.5248 23.6221Z" fill="#FCC24C"/>
<path d="M61.8497 26.152H58.5942L58.0814 14.2866H62.3625L61.8497 26.152ZM57.9622 29.8487C57.9622 29.2604 58.1728 28.7795 58.5942 28.4058C59.0235 28.0242 59.5561 27.8334 60.1921 27.8334C60.8281 27.8334 61.3568 28.0242 61.7782 28.4058C62.2075 28.7795 62.4221 29.2604 62.4221 29.8487C62.4221 30.437 62.2075 30.922 61.7782 31.3036C61.3568 31.6772 60.8281 31.8641 60.1921 31.8641C59.5561 31.8641 59.0235 31.6772 58.5942 31.3036C58.1728 30.922 57.9622 30.437 57.9622 29.8487Z" fill="white"/>
<path fill-rule="evenodd" clip-rule="evenodd" d="M62.0218 27.2374H62.8892L63.4958 13.2012H56.948L57.5546 27.2374H58.3556C58.1875 27.3395 58.0267 27.4581 57.874 27.5937C57.2088 28.1836 56.8767 28.9657 56.8767 29.8487C56.8767 30.7314 57.2081 31.5127 57.8655 32.1081L57.8735 32.1153L57.8816 32.1223C58.532 32.6884 59.3272 32.9495 60.1921 32.9495C61.0568 32.9495 61.8525 32.6884 62.4983 32.1157L62.4993 32.1149C63.1666 31.5216 63.5075 30.7385 63.5075 29.8487C63.5075 28.9621 63.1686 28.1809 62.4988 27.5941C62.3478 27.4582 62.1885 27.3395 62.0218 27.2374ZM61.7781 28.4058C61.3568 28.0242 60.8281 27.8334 60.1921 27.8334C59.5561 27.8334 59.0235 28.0242 58.5942 28.4058C58.1728 28.7795 57.9621 29.2604 57.9621 29.8487C57.9621 30.437 58.1728 30.922 58.5942 31.3036C59.0235 31.6772 59.5561 31.8641 60.1921 31.8641C60.8281 31.8641 61.3568 31.6772 61.7781 31.3036C62.2074 30.922 62.4221 30.437 62.4221 29.8487C62.4221 29.2604 62.2074 28.7795 61.7781 28.4058ZM61.8497 26.152H58.5942L58.0814 14.2866H62.3625L61.8497 26.152Z" fill="#333333"/>
<path d="M60.1909 43.9823C59.953 43.9823 59.7327 43.8554 59.6138 43.6491L57.1155 39.3224C49.607 37.8625 44.1899 31.3094 44.1899 23.6216C44.1899 14.7985 51.3679 7.62061 60.1909 7.62061C69.014 7.62061 76.192 14.7985 76.192 23.6216C76.192 31.3094 70.7749 37.8625 63.2664 39.3224L60.7681 43.6491C60.6491 43.8554 60.4289 43.9823 60.1909 43.9823ZM60.1909 8.95355C52.103 8.95355 45.5229 15.5336 45.5229 23.6216C45.5229 30.7652 50.6247 36.8401 57.6534 38.0661C57.8476 38.1001 58.0172 38.2184 58.1159 38.3893L60.1909 41.9829L62.2657 38.3893C62.3643 38.2184 62.5339 38.0997 62.7282 38.0661C69.7572 36.8398 74.8587 30.7652 74.8587 23.6216C74.859 15.5336 68.2789 8.95355 60.1909 8.95355Z" fill="#333333"/>
<path d="M97.1336 50.9039C95.7191 50.9039 94.4362 51.4564 93.4791 52.3523V42.1187H65.1985V70.3993H75.4321C74.5362 71.3567 73.9838 72.6392 73.9838 74.0537C73.9838 77.0113 76.3812 79.4088 79.3388 79.4088C82.2964 79.4088 84.6939 77.0113 84.6939 74.0537C84.6939 72.6392 84.1414 71.3564 83.2455 70.3993H93.4791V60.1656C94.4365 61.0616 95.7191 61.614 97.1336 61.614C100.091 61.614 102.489 59.2165 102.489 56.259C102.489 53.3018 100.091 50.9039 97.1336 50.9039Z" fill="#526FAA"/>
<path d="M97.1335 50.9038C96.6546 50.9038 96.1927 50.9719 95.7515 51.0904C98.038 51.7005 99.7244 53.7801 99.7244 56.2587C99.7244 58.7373 98.0376 60.8169 95.7515 61.427C96.1927 61.5455 96.6546 61.6136 97.1335 61.6136C100.091 61.6136 102.488 59.2162 102.488 56.2587C102.488 53.3016 100.091 50.9038 97.1335 50.9038Z" fill="#34518C"/>
<path d="M65.1985 42.1191H67.9625V70.3989H65.1985V42.1191Z" fill="#708DC8"/>
<path d="M79.3384 80.1003C76.0046 80.1003 73.2923 77.388 73.2923 74.0542C73.2923 73.0052 73.5636 71.9887 74.0718 71.0904H65.1981C64.8167 71.0904 64.5071 70.7808 64.5071 70.3994V42.1188C64.5071 41.7373 64.8167 41.4277 65.1981 41.4277H93.4787C93.8602 41.4277 94.1698 41.7373 94.1698 42.1188V50.9925C95.0677 50.4842 96.0846 50.213 97.1335 50.213C100.467 50.213 103.18 52.9253 103.18 56.2591C103.18 59.5929 100.467 62.3051 97.1335 62.3051C96.0846 62.3051 95.0677 62.0339 94.1698 61.5257V70.3994C94.1698 70.7808 93.8602 71.0904 93.4787 71.0904H84.605C85.1133 71.9887 85.3845 73.0052 85.3845 74.0542C85.3848 77.388 82.6722 80.1003 79.3384 80.1003ZM65.8895 69.7084H75.4321C75.7075 69.7084 75.9566 69.8718 76.0661 70.1244C76.1756 70.3769 76.1248 70.6706 75.9365 70.8717C75.1229 71.7414 74.6744 72.8715 74.6744 74.0542C74.6744 76.6258 76.7668 78.7182 79.3384 78.7182C81.91 78.7182 84.0024 76.6258 84.0024 74.0542C84.0024 72.8719 83.5543 71.7414 82.7403 70.8717C82.5523 70.6706 82.5016 70.3769 82.6107 70.1244C82.7203 69.8718 82.9694 69.7084 83.2447 69.7084H92.7874V60.1657C92.7874 59.8904 92.9508 59.6413 93.2034 59.5317C93.4563 59.4226 93.7496 59.4733 93.9507 59.6613C94.8204 60.475 95.9505 60.9231 97.1332 60.9231C99.7048 60.9231 101.797 58.8307 101.797 56.2591C101.797 53.6874 99.7052 51.595 97.1332 51.595C95.9505 51.595 94.8204 52.0432 93.9507 52.8568C93.7496 53.0451 93.4563 53.0959 93.2034 52.9864C92.9508 52.8769 92.7874 52.6278 92.7874 52.3524V42.8094H65.8888V69.7084H65.8895Z" fill="#333333"/>
<path d="M69.6522 61.5234V53.0034H73.2642C73.6562 53.0034 74.0162 53.0874 74.3442 53.2554C74.6802 53.4154 74.9682 53.6314 75.2082 53.9034C75.4482 54.1674 75.6362 54.4714 75.7722 54.8154C75.9082 55.1514 75.9762 55.4914 75.9762 55.8354C75.9762 56.1954 75.9122 56.5474 75.7842 56.8914C75.6562 57.2274 75.4762 57.5274 75.2442 57.7914C75.0122 58.0554 74.7322 58.2674 74.4042 58.4274C74.0762 58.5874 73.7162 58.6674 73.3242 58.6674H71.3082V61.5234H69.6522ZM71.3082 57.2154H73.2282C73.5322 57.2154 73.7842 57.0914 73.9842 56.8434C74.1922 56.5954 74.2962 56.2594 74.2962 55.8354C74.2962 55.6194 74.2642 55.4274 74.2002 55.2594C74.1362 55.0834 74.0522 54.9354 73.9482 54.8154C73.8442 54.6954 73.7202 54.6074 73.5762 54.5514C73.4402 54.4874 73.3002 54.4554 73.1562 54.4554H71.3082V57.2154ZM77.1287 61.5234V53.0034H80.2247C80.9207 53.0034 81.5287 53.1154 82.0487 53.3394C82.5767 53.5634 83.0167 53.8674 83.3687 54.2514C83.7207 54.6354 83.9847 55.0874 84.1607 55.6074C84.3367 56.1194 84.4247 56.6674 84.4247 57.2514C84.4247 57.8994 84.3247 58.4874 84.1247 59.0154C83.9327 59.5354 83.6527 59.9834 83.2847 60.3594C82.9167 60.7274 82.4727 61.0154 81.9527 61.2234C81.4407 61.4234 80.8647 61.5234 80.2247 61.5234H77.1287ZM82.7567 57.2514C82.7567 56.8434 82.7007 56.4674 82.5887 56.1234C82.4767 55.7794 82.3127 55.4834 82.0967 55.2354C81.8807 54.9874 81.6127 54.7954 81.2927 54.6594C80.9807 54.5234 80.6247 54.4554 80.2247 54.4554H78.7847V60.0714H80.2247C80.6327 60.0714 80.9927 59.9994 81.3047 59.8554C81.6247 59.7114 81.8887 59.5154 82.0967 59.2674C82.3127 59.0114 82.4767 58.7114 82.5887 58.3674C82.7007 58.0234 82.7567 57.6514 82.7567 57.2514ZM85.7186 61.5234V53.0034H91.4426V54.4554H87.3746V56.6514H90.7586V57.9954H87.3746V61.5234H85.7186Z" fill="white"/>
</svg>
