<svg width="116" height="87" viewBox="0 0 116 87" fill="none" xmlns="http://www.w3.org/2000/svg">
<circle cx="7.6965" cy="78.6523" r="6.83688" fill="#C0D9ED"/>
<circle cx="13.2904" cy="10.905" r="3.72921" fill="#C0D9ED"/>
<circle cx="109.007" cy="23.3355" r="6.21535" fill="#C0D9ED"/>
<circle cx="56.1762" cy="43.8463" r="42.8859" fill="#C0D9ED"/>
<path d="M23.9647 80.64H27.6246C25.8357 80.64 24.3856 78.9333 24.3856 76.8278V15.7478C24.3856 13.6422 25.8357 11.9355 27.6246 11.9355H23.9647C22.1758 11.9355 20.7257 13.6422 20.7257 15.7478V76.8278C20.7257 78.9333 22.1758 80.64 23.9647 80.64Z" fill="white"/>
<path d="M23.6532 27.961C23.2492 27.961 22.9213 27.575 22.9213 27.0995V21.9304C22.9213 21.4548 23.2492 21.0688 23.6532 21.0688C24.0573 21.0688 24.3852 21.4548 24.3852 21.9304V27.0995C24.3852 27.575 24.0573 27.961 23.6532 27.961Z" fill="#333333"/>
<path d="M98.3137 80.6745H23.5183C21.9308 80.6745 20.644 78.8685 20.644 76.6405V12.0067C20.644 9.77862 21.9308 7.97266 23.5183 7.97266H98.3137C99.9012 7.97266 101.188 9.77862 101.188 12.0067V76.6405C101.188 78.8685 99.9012 80.6745 98.3137 80.6745Z" fill="white"/>
<path d="M98.3128 7.97266H95.0651C96.6526 7.97266 97.9393 9.77862 97.9393 12.0067V76.6405C97.9393 78.8685 96.6526 80.6745 95.0651 80.6745H98.3128C99.9003 80.6745 101.187 78.8685 101.187 76.6405V12.0067C101.187 9.77862 99.9003 7.97266 98.3128 7.97266Z" fill="#D6D1CF"/>
<path d="M98.3129 81.5015H23.5174C21.5743 81.5015 19.9937 79.2596 19.9937 76.5037V11.1887C19.9937 8.43279 21.5743 6.19092 23.5174 6.19092H98.3129C100.256 6.19092 101.837 8.43279 101.837 11.1887V76.5037C101.837 79.2596 100.256 81.5015 98.3129 81.5015ZM23.5174 8.03342C22.2908 8.03342 21.2927 9.44893 21.2927 11.1887V76.5037C21.2927 78.2435 22.2908 79.659 23.5174 79.659H98.3129C99.5395 79.659 100.538 78.2435 100.538 76.5037V11.1887C100.538 9.44893 99.5395 8.03342 98.3129 8.03342H23.5174Z" fill="#333333"/>
<path d="M66.6167 56.6152L72.1206 63.4609L65.8702 68.0907L64.1937 59.1382L66.6167 56.6152Z" fill="white"/>
<circle cx="60.9155" cy="38.578" r="21.2885" fill="#FCC24C" stroke="#333333" stroke-width="1.7"/>
<path d="M71.1532 39.8918L54.5452 30.3032V49.4805L71.1532 39.8918Z" fill="#526FAA"/>
<path fill-rule="evenodd" clip-rule="evenodd" d="M71.1532 39.8918L54.5452 49.4805V30.3032L71.1532 39.8918ZM68.1557 39.8918L56.0439 46.8846V32.8991L68.1557 39.8918Z" fill="#333333"/>
<path d="M84.6997 66.9431H37.1307C36.6761 66.9431 36.3071 66.5741 36.3071 66.1195C36.3071 65.6649 36.6761 65.2959 37.1307 65.2959H84.6997C85.1543 65.2959 85.5233 65.6649 85.5233 66.1195C85.5233 66.5741 85.1543 66.9431 84.6997 66.9431Z" fill="#333333"/>
<path d="M76.4076 74.7585H45.4229C45.1268 74.7585 44.8865 74.3896 44.8865 73.9349C44.8865 73.4803 45.1268 73.1113 45.4229 73.1113H76.4076C76.7038 73.1113 76.9441 73.4803 76.9441 73.9349C76.9441 74.3896 76.7038 74.7585 76.4076 74.7585Z" fill="#333333"/>
</svg>
