<svg width="115" height="87" viewBox="0 0 115 87" fill="none" xmlns="http://www.w3.org/2000/svg">
<circle cx="7.26901" cy="78.6523" r="6.83688" fill="#C0D9ED"/>
<circle cx="108.579" cy="23.3355" r="6.21535" fill="#C0D9ED"/>
<circle cx="12.863" cy="10.905" r="3.72921" fill="#C0D9ED"/>
<circle cx="55.7487" cy="43.8463" r="42.8859" fill="#C0D9ED"/>
<path d="M91.0429 84.3047H30.6262V15.7702L44.7332 1.66357H91.0429V84.3047Z" fill="white"/>
<path d="M30.6262 15.7708V84.3053H33.9585V12.4385L30.6262 15.7708Z" fill="white"/>
<path d="M87.7107 1.66357H91.043V84.3047H87.7107V1.66357Z" fill="#D6D1CF"/>
<path d="M91.0438 84.9721H30.6272C30.2593 84.9721 29.9607 84.6736 29.9607 84.3057V15.7712C29.9607 15.5945 30.031 15.4249 30.156 15.3L44.2626 1.19332C44.3876 1.06836 44.5572 0.998047 44.7338 0.998047H91.0438C91.4117 0.998047 91.7103 1.29662 91.7103 1.66451V84.3057C91.7103 84.6736 91.4121 84.9721 91.0438 84.9721ZM31.2936 83.6392H90.3774V2.33097H45.01L31.2936 16.0474V83.6392Z" fill="#333333"/>
<path d="M33.2919 28.9928C32.9241 28.9928 32.6255 28.6942 32.6255 28.3264V24.3276C32.6255 23.9597 32.9241 23.6611 33.2919 23.6611C33.6598 23.6611 33.9584 23.9597 33.9584 24.3276V28.3264C33.9584 28.6946 33.6602 28.9928 33.2919 28.9928Z" fill="#333333"/>
<path d="M78.415 49.1894H39.9218C39.5539 49.1894 39.2554 48.8908 39.2554 48.5229C39.2554 48.155 39.5539 47.8564 39.9218 47.8564H78.415C78.7828 47.8564 79.0814 48.155 79.0814 48.5229C79.0814 48.8908 78.7828 49.1894 78.415 49.1894Z" fill="#333333"/>
<path d="M78.415 61.5248H39.9218C39.5539 61.5248 39.2554 61.2262 39.2554 60.8584C39.2554 60.4905 39.5539 60.1919 39.9218 60.1919H78.415C78.7828 60.1919 79.0814 60.4905 79.0814 60.8584C79.0814 61.2262 78.7828 61.5248 78.415 61.5248Z" fill="#333333"/>
<path d="M75.0826 73.8598H39.9218C39.5539 73.8598 39.2554 73.5612 39.2554 73.1933C39.2554 72.8254 39.5539 72.5269 39.9218 72.5269H75.0826C75.4505 72.5269 75.7491 72.8254 75.7491 73.1933C75.7491 73.5612 75.4505 73.8598 75.0826 73.8598Z" fill="#333333"/>
<path d="M44.7332 1.66357V15.7702H30.6262L44.7332 1.66357Z" fill="#526FAA"/>
<path d="M44.7328 16.4368H30.6261C30.3566 16.4368 30.1136 16.2745 30.0103 16.0252C29.907 15.7763 29.964 15.4897 30.1549 15.2991L44.2616 1.19247C44.4519 1.00186 44.7391 0.944546 44.9877 1.04785C45.237 1.15115 45.3992 1.39407 45.3992 1.66366V15.7703C45.3992 16.1385 45.101 16.4368 44.7328 16.4368ZM32.2353 15.1038H44.0663V3.27283L32.2353 15.1038Z" fill="#333333"/>
<path d="M76.1687 23.6233C76.1687 15.1546 69.3035 8.28906 60.8348 8.28906C52.366 8.28906 45.5005 15.1546 45.5005 23.6233C45.5005 31.1873 50.9785 37.4674 58.1826 38.7243L58.9034 39.973L60.8344 43.3173L62.7655 39.9726L63.4863 38.724C70.6904 37.4674 76.1687 31.187 76.1687 23.6233Z" fill="#FCC24C"/>
<path d="M60.8344 43.9842C60.5965 43.9842 60.3762 43.8572 60.2572 43.6509L57.759 39.3243C50.2506 37.8644 44.834 31.3114 44.834 23.6238C44.834 14.8008 52.0118 7.62305 60.8347 7.62305C69.6573 7.62305 76.8351 14.8008 76.8351 23.6238C76.8351 31.3114 71.4184 37.8644 63.9098 39.3243L61.4115 43.6509C61.2926 43.8572 61.0726 43.9842 60.8344 43.9842ZM60.8344 8.95597C52.7465 8.95597 46.1666 15.5359 46.1666 23.6238C46.1666 30.7672 51.2683 36.842 58.2968 38.068C58.4911 38.102 58.6607 38.2203 58.7594 38.3912L60.8344 41.9848L62.9091 38.3912C63.0077 38.2203 63.1773 38.1016 63.3716 38.068C70.4004 36.8417 75.5019 30.7672 75.5019 23.6238C75.5019 15.5359 68.9222 8.95597 60.8344 8.95597Z" fill="#333333"/>
<path d="M101.22 73.3965H80.8657C84.6509 69.5497 86.7752 64.3469 86.7752 58.9243V55.5493H95.3106V58.9243C95.3106 64.3469 97.4349 69.5497 101.22 73.3965Z" fill="#FCC24C"/>
<path d="M101.22 73.397H80.8656C80.0858 73.397 79.4534 74.0291 79.4534 74.8092C79.4534 75.589 80.0855 76.2214 80.8656 76.2214H101.22C101.999 76.2214 102.632 75.5893 102.632 74.8092C102.632 74.0291 102 73.397 101.22 73.397Z" fill="#FCC24C"/>
<path d="M77.1819 84.3049H104.904V81.2148C104.904 78.4567 102.668 76.2207 99.9095 76.2207H82.176C79.4179 76.2207 77.1819 78.4567 77.1819 81.2148V84.3049Z" fill="#FCC24C"/>
<path d="M95.3104 55.5493H93.311V58.9243C93.311 64.3473 95.4354 69.5497 99.2205 73.3965H101.22C97.4348 69.5497 95.3104 64.3469 95.3104 58.9243V55.5493Z" fill="#DEA42E"/>
<path d="M101.22 73.397H98.554C99.3337 73.397 99.9662 74.0291 99.9662 74.8092C99.9662 75.589 99.334 76.2214 98.554 76.2214H101.22C102 76.2214 102.632 75.5893 102.632 74.8092C102.632 74.0291 102 73.397 101.22 73.397Z" fill="#DEA42E"/>
<path d="M100.243 76.2207H96.9106C99.6688 76.2207 101.905 78.4567 101.905 81.2148V84.3049H105.237V81.2148C105.237 78.4567 103.001 76.2207 100.243 76.2207Z" fill="#DEA42E"/>
<path d="M87.1085 55.5493H89.1079V58.9243C89.1079 64.3473 86.9835 69.5497 83.1984 73.3965H81.199C84.9841 69.5497 87.1085 64.3469 87.1085 58.9243V55.5493Z" fill="#FCE06A"/>
<path d="M81.1988 73.397H83.8647C83.0849 73.397 82.4525 74.0291 82.4525 74.8092C82.4525 75.589 83.0846 76.2214 83.8647 76.2214H81.1988C80.4191 76.2214 79.7866 75.5893 79.7866 74.8092C79.787 74.0291 80.4191 73.397 81.1988 73.397Z" fill="#FCE06A"/>
<path d="M82.176 76.2207H85.5083C82.7502 76.2207 80.5142 78.4567 80.5142 81.2148V84.3049H77.1819V81.2148C77.1819 78.4567 79.4179 76.2207 82.176 76.2207Z" fill="#FCE06A"/>
<path d="M101.22 74.0632H80.8659C80.5973 74.0632 80.355 73.9019 80.2511 73.6544C80.1471 73.4064 80.2024 73.1209 80.3907 72.9292C84.0779 69.1817 86.1086 64.2083 86.1086 58.9242V55.5493C86.1086 55.1814 86.4072 54.8828 86.7751 54.8828H95.3104C95.6783 54.8828 95.9769 55.1814 95.9769 55.5493V58.9242C95.9769 64.2079 98.0076 69.1817 101.695 72.9292C101.883 73.1209 101.938 73.4064 101.835 73.6544C101.731 73.9019 101.489 74.0632 101.22 74.0632ZM82.3794 72.7303H99.7057C96.4307 68.8885 94.6436 64.0423 94.6436 58.9242V56.2157H87.4412V58.9242C87.4415 64.0423 85.6544 68.8885 82.3794 72.7303Z" fill="#333333"/>
<path d="M101.22 76.887H80.866C79.7201 76.887 78.7874 75.9547 78.7874 74.8087C78.7874 73.6627 79.7197 72.73 80.866 72.73H101.22C102.366 72.73 103.298 73.6624 103.298 74.8087C103.298 75.955 102.366 76.887 101.22 76.887ZM80.866 74.0629C80.4548 74.0629 80.1203 74.3975 80.1203 74.8087C80.1203 75.2199 80.4548 75.5541 80.866 75.5541H101.22C101.631 75.5541 101.966 75.2199 101.966 74.8087C101.966 74.3975 101.631 74.0629 101.22 74.0629H80.866Z" fill="#333333"/>
<path d="M104.904 84.9713H77.1821C76.8142 84.9713 76.5156 84.6727 76.5156 84.3048V81.2148C76.5156 78.0934 79.0548 75.5542 82.1762 75.5542H99.9097C103.031 75.5542 105.57 78.0934 105.57 81.2148V84.3048C105.57 84.6727 105.272 84.9713 104.904 84.9713ZM77.8482 83.6384H104.237V81.2148C104.237 78.8285 102.296 76.8871 99.9094 76.8871H82.1759C79.7896 76.8871 77.8482 78.8285 77.8482 81.2148V83.6384Z" fill="#333333"/>
<path d="M104.675 81.8813H77.4111C77.0432 81.8813 76.7446 81.5827 76.7446 81.2148C76.7446 80.8469 77.0432 80.5483 77.4111 80.5483H104.675C105.043 80.5483 105.341 80.8469 105.341 81.2148C105.341 81.5827 105.043 81.8813 104.675 81.8813Z" fill="#333333"/>
<path d="M91.043 53.9351C94.8562 53.9351 97.9475 50.8438 97.9475 47.0305C97.9475 43.2172 94.8562 40.126 91.043 40.126C87.2297 40.126 84.1384 43.2172 84.1384 47.0305C84.1384 50.8438 87.2297 53.9351 91.043 53.9351Z" fill="#FCC24C"/>
<path d="M91.0429 40.1265C90.7023 40.1265 90.3704 40.1595 90.0432 40.2071C93.3815 40.6926 95.9481 43.5584 95.9481 47.031C95.9481 50.5036 93.3815 53.3694 90.0432 53.8549C90.3704 53.9025 90.7023 53.9355 91.0429 53.9355C94.8561 53.9355 97.9474 50.8442 97.9474 47.031C97.9474 43.2178 94.8561 40.1265 91.0429 40.1265Z" fill="#DEA42E"/>
<path d="M91.3762 40.1265C91.7168 40.1265 92.0487 40.1595 92.3759 40.2071C89.0376 40.6926 86.4711 43.5584 86.4711 47.031C86.4711 50.5036 89.0376 53.3694 92.3759 53.8549C92.0487 53.9025 91.7168 53.9355 91.3762 53.9355C87.5631 53.9355 84.4717 50.8442 84.4717 47.031C84.4717 43.2178 87.5631 40.1265 91.3762 40.1265Z" fill="#FCE06A"/>
<path d="M91.0429 54.6016C86.8682 54.6016 83.4719 51.2053 83.4719 47.031C83.4719 42.8562 86.8682 39.46 91.0429 39.46C95.2173 39.46 98.6136 42.8562 98.6136 47.031C98.6136 51.2053 95.2173 54.6016 91.0429 54.6016ZM91.0429 40.7929C87.6033 40.7929 84.8048 43.591 84.8048 47.031C84.8048 50.4706 87.603 53.2687 91.0429 53.2687C94.4825 53.2687 97.2807 50.4706 97.2807 47.031C97.2807 43.591 94.4825 40.7929 91.0429 40.7929Z" fill="#333333"/>
<path d="M97.2879 55.5495H84.7977C83.9966 55.5495 83.3472 54.9001 83.3472 54.099C83.3472 53.2979 83.9966 52.6484 84.7977 52.6484H97.2879C98.0889 52.6484 98.7384 53.2979 98.7384 54.099C98.7384 54.9001 98.0889 55.5495 97.2879 55.5495Z" fill="#FCC24C"/>
<path d="M97.2879 52.6484H94.9553C95.7564 52.6484 96.4059 53.2979 96.4059 54.099C96.4059 54.9001 95.7564 55.5495 94.9553 55.5495H97.2879C98.089 55.5495 98.7385 54.9001 98.7385 54.099C98.7385 53.2976 98.089 52.6484 97.2879 52.6484Z" fill="#DEA42E"/>
<path d="M85.131 52.6484H87.4636C86.6625 52.6484 86.013 53.2979 86.013 54.099C86.013 54.9001 86.6625 55.5495 87.4636 55.5495H85.131C84.3299 55.5495 83.6804 54.9001 83.6804 54.099C83.6804 53.2976 84.3299 52.6484 85.131 52.6484Z" fill="#FCE06A"/>
<path d="M97.2878 56.216H84.7977C83.6304 56.216 82.6807 55.2663 82.6807 54.0989C82.6807 52.9316 83.6304 51.9819 84.7977 51.9819H97.2878C98.4551 51.9819 99.4048 52.9316 99.4048 54.0989C99.4048 55.2663 98.4551 56.216 97.2878 56.216ZM84.7977 53.3145C84.3655 53.3145 84.0136 53.6664 84.0136 54.0986C84.0136 54.5308 84.3655 54.8827 84.7977 54.8827H97.2878C97.72 54.8827 98.0719 54.5308 98.0719 54.0986C98.0719 53.6664 97.72 53.3145 97.2878 53.3145H84.7977Z" fill="#333333"/>
<path d="M62.4227 27.152H59.1672L58.6544 15.2866H62.9355L62.4227 27.152ZM58.5352 30.8487C58.5352 30.2604 58.7458 29.7795 59.1672 29.4058C59.5965 29.0242 60.1291 28.8334 60.7651 28.8334C61.4011 28.8334 61.9298 29.0242 62.3512 29.4058C62.7805 29.7795 62.9951 30.2604 62.9951 30.8487C62.9951 31.437 62.7805 31.922 62.3512 32.3036C61.9298 32.6772 61.4011 32.8641 60.7651 32.8641C60.1291 32.8641 59.5965 32.6772 59.1672 32.3036C58.7458 31.922 58.5352 31.437 58.5352 30.8487Z" fill="white"/>
<path fill-rule="evenodd" clip-rule="evenodd" d="M62.5948 28.2374H63.4622L64.0688 14.2012H57.521L58.1276 28.2374H58.9286C58.7605 28.3395 58.5997 28.4581 58.447 28.5937C57.7818 29.1836 57.4497 29.9657 57.4497 30.8487C57.4497 31.7314 57.7811 32.5127 58.4385 33.1081L58.4465 33.1153L58.4546 33.1223C59.105 33.6884 59.9002 33.9495 60.7651 33.9495C61.6298 33.9495 62.4255 33.6884 63.0713 33.1157L63.0723 33.1149C63.7396 32.5216 64.0805 31.7385 64.0805 30.8487C64.0805 29.9621 63.7416 29.1809 63.0718 28.5941C62.9208 28.4582 62.7615 28.3395 62.5948 28.2374ZM62.3511 29.4058C61.9298 29.0242 61.4011 28.8334 60.7651 28.8334C60.1291 28.8334 59.5965 29.0242 59.1672 29.4058C58.7458 29.7795 58.5351 30.2604 58.5351 30.8487C58.5351 31.437 58.7458 31.922 59.1672 32.3036C59.5965 32.6772 60.1291 32.8641 60.7651 32.8641C61.4011 32.8641 61.9298 32.6772 62.3511 32.3036C62.7804 31.922 62.9951 31.437 62.9951 30.8487C62.9951 30.2604 62.7804 29.7795 62.3511 29.4058ZM62.4227 27.152H59.1672L58.6544 15.2866H62.9355L62.4227 27.152Z" fill="#333333"/>
</svg>
